<svg width="60" height="58" viewBox="0 0 60 58" fill="none" xmlns="http://www.w3.org/2000/svg">
<path d="M19.44 45.48C15.92 45.48 12.896 44.776 10.368 43.368C7.872 41.928 5.952 39.912 4.608 37.32C3.264 34.696 2.592 31.608 2.592 28.056C2.592 24.504 3.264 21.432 4.608 18.84C5.952 16.248 7.872 14.248 10.368 12.84C12.896 11.4 15.92 10.68 19.44 10.68C21.712 10.68 23.856 11.032 25.872 11.736C27.92 12.44 29.6 13.448 30.912 14.76L28.896 19.656C27.456 18.44 25.984 17.56 24.48 17.016C22.976 16.44 21.36 16.152 19.632 16.152C16.208 16.152 13.6 17.192 11.808 19.272C10.016 21.32 9.12 24.248 9.12 28.056C9.12 31.864 10.016 34.808 11.808 36.888C13.6 38.968 16.208 40.008 19.632 40.008C21.36 40.008 22.976 39.736 24.48 39.192C25.984 38.616 27.456 37.72 28.896 36.504L30.912 41.4C29.6 42.68 27.92 43.688 25.872 44.424C23.856 45.128 21.712 45.48 19.44 45.48Z" fill="#4C2A5B"/>
<path d="M36.2741 45V11.16H58.4021V16.056H42.4181V25.608H57.3941V30.504H42.4181V45H36.2741Z" fill="#DC8B42"/>
</svg>
