<svg width="375" height="375" viewBox="0 0 375 375" fill="none" xmlns="http://www.w3.org/2000/svg">
<path d="M119.148 190.078L119.16 189.738C119.246 187.402 119.836 185.195 120.93 183.117C121.938 181.219 123.207 179.684 124.738 178.512C126.254 177.355 127.73 176.777 129.168 176.777C130.262 176.777 131.125 177.156 131.758 177.914C132.297 178.57 132.566 179.375 132.566 180.328C132.566 181.469 132.148 182.594 131.312 183.703C130.828 184.344 130.312 184.805 129.766 185.086C129.508 185.227 129.266 185.297 129.039 185.297C128.82 185.297 128.617 185.25 128.43 185.156C128.242 185.062 128.078 184.945 127.938 184.805C127.648 184.5 127.504 184.227 127.504 183.984C127.504 183.742 127.566 183.574 127.691 183.48C128.973 182.559 129.844 181.609 130.305 180.633C130.484 180.258 130.574 179.891 130.574 179.531C130.574 178.773 130.215 178.395 129.496 178.395C128.371 178.395 127.211 179.008 126.016 180.234C124.898 181.367 123.961 182.789 123.203 184.5C122.414 186.258 121.996 187.871 121.949 189.34L121.938 189.785C121.938 191.543 122.309 192.695 123.051 193.242C123.316 193.438 123.633 193.535 124 193.535C124.375 193.535 124.727 193.488 125.055 193.395C125.383 193.301 125.711 193.172 126.039 193.008C126.57 192.734 127.25 192.262 128.078 191.59C128.328 191.395 128.535 191.422 128.699 191.672C128.84 191.875 128.91 192.109 128.91 192.375C128.91 192.82 128.848 193.125 128.723 193.289C128.605 193.445 128.398 193.633 128.102 193.852C127.812 194.07 127.457 194.273 127.035 194.461C126.051 194.898 125.086 195.117 124.141 195.117C123.195 195.117 122.434 195.004 121.855 194.777C121.277 194.543 120.789 194.211 120.391 193.781C119.562 192.875 119.148 191.641 119.148 190.078ZM140.125 185.086C139.695 185.086 138.926 185.742 137.816 187.055L136.844 188.25L134.969 190.699C134.516 191.559 134.16 192.273 133.902 192.844L133.27 194.203C133.105 194.539 132.961 194.777 132.836 194.918C132.719 195.051 132.555 195.117 132.344 195.117C132.141 195.117 131.941 195.078 131.746 195C131.559 194.93 131.395 194.836 131.254 194.719C130.957 194.469 130.809 194.195 130.809 193.898C130.809 193.781 130.891 193.551 131.055 193.207L131.523 192.258C132.984 189.25 134.309 185.438 135.496 180.82C135.934 179.117 136.25 177.586 136.445 176.227C136.531 175.57 136.852 175.242 137.406 175.242C137.766 175.242 138.062 175.328 138.297 175.5C138.75 175.836 138.969 176.195 138.953 176.578C138.938 176.961 138.883 177.391 138.789 177.867C138.695 178.344 138.574 178.863 138.426 179.426C138.277 179.98 138.109 180.566 137.922 181.184C137.406 182.754 137.023 183.887 136.773 184.582C136.008 186.684 135.535 187.914 135.355 188.273C135.473 188.133 135.625 187.941 135.812 187.699C137.234 185.832 138.113 184.719 138.449 184.359C138.785 183.992 139.07 183.711 139.305 183.516C139.797 183.086 140.422 182.871 141.18 182.871C141.797 182.871 142.293 183.078 142.668 183.492C143.02 183.891 143.195 184.328 143.195 184.805C143.195 185.273 143.141 185.699 143.031 186.082C142.93 186.457 142.797 186.84 142.633 187.23C142.469 187.621 142.289 188.023 142.094 188.438L141.508 189.668C140.961 190.91 140.688 191.832 140.688 192.434C140.688 192.855 140.859 193.066 141.203 193.066C141.531 193.066 141.828 192.996 142.094 192.855C142.367 192.715 142.543 192.645 142.621 192.645C142.785 192.645 142.867 192.727 142.867 192.891C142.867 193.586 142.516 194.168 141.812 194.637C141.328 194.957 140.887 195.117 140.488 195.117C140.09 195.117 139.758 195.078 139.492 195C139.234 194.914 139.004 194.777 138.801 194.59C138.34 194.168 138.109 193.547 138.109 192.727C138.109 191.844 138.398 190.734 138.977 189.398L140.242 186.703C140.484 186.203 140.605 185.809 140.605 185.52C140.605 185.23 140.445 185.086 140.125 185.086ZM145.047 194.719C144.891 194.602 144.766 194.473 144.672 194.332C144.578 194.184 144.527 194.059 144.52 193.957C144.512 193.848 144.531 193.719 144.578 193.57C144.633 193.414 144.703 193.227 144.789 193.008C146.383 189.086 147.18 186.453 147.18 185.109C147.156 184.734 147.027 184.469 146.793 184.312L146.559 184.148C146.488 184.094 146.449 184 146.441 183.867C146.441 183.727 146.492 183.594 146.594 183.469C146.695 183.344 146.828 183.234 146.992 183.141C147.328 182.961 147.672 182.871 148.023 182.871C148.383 182.871 148.66 182.91 148.855 182.988C149.059 183.066 149.23 183.172 149.371 183.305C149.668 183.586 149.816 183.883 149.816 184.195C149.824 184.508 149.789 184.824 149.711 185.145C149.641 185.465 149.555 185.781 149.453 186.094C149.352 186.398 149.25 186.691 149.148 186.973C149.047 187.246 148.98 187.449 148.949 187.582C148.887 187.855 148.863 188.027 148.879 188.098C149.066 187.934 149.18 187.773 149.219 187.617L149.676 186.75C150.691 184.922 151.684 183.711 152.652 183.117C152.934 182.953 153.27 182.871 153.66 182.871C154.059 182.871 154.379 183.012 154.621 183.293C154.863 183.566 154.988 183.871 154.996 184.207C155.012 184.543 154.988 184.824 154.926 185.051C154.871 185.27 154.785 185.477 154.668 185.672C154.41 186.109 154.098 186.328 153.73 186.328C153.629 186.328 153.535 186.293 153.449 186.223L153.191 186C152.934 185.773 152.684 185.66 152.441 185.66C152.207 185.66 151.918 185.816 151.574 186.129C151.238 186.441 150.887 186.844 150.52 187.336C149.285 188.969 148.277 190.797 147.496 192.82L146.98 194.18C146.848 194.516 146.73 194.758 146.629 194.906C146.527 195.047 146.375 195.117 146.172 195.117C145.977 195.117 145.777 195.078 145.574 195C145.379 194.93 145.203 194.836 145.047 194.719ZM161.125 180.129C160.953 180.309 160.758 180.457 160.539 180.574C160.32 180.684 160.09 180.754 159.848 180.785C159.605 180.809 159.375 180.77 159.156 180.668C158.945 180.566 158.762 180.422 158.605 180.234C158.27 179.844 158.102 179.449 158.102 179.051C158.102 178.652 158.164 178.355 158.289 178.16C158.422 177.957 158.586 177.793 158.781 177.668C159.156 177.426 159.508 177.305 159.836 177.305C160.172 177.305 160.43 177.328 160.609 177.375C160.797 177.422 160.969 177.5 161.125 177.609C161.508 177.867 161.699 178.184 161.699 178.559C161.699 178.926 161.645 179.234 161.535 179.484C161.434 179.727 161.297 179.941 161.125 180.129ZM158.723 192.809C158.926 192.809 159.027 192.941 159.027 193.207C159.027 193.559 158.867 193.922 158.547 194.297C158.078 194.844 157.449 195.117 156.66 195.117C155.754 195.117 155.133 194.75 154.797 194.016C154.672 193.758 154.609 193.445 154.609 193.078C154.609 192.711 154.672 192.305 154.797 191.859C154.93 191.406 155.09 190.934 155.277 190.441C155.473 189.941 155.684 189.438 155.91 188.93L156.531 187.453C156.984 186.352 157.211 185.625 157.211 185.273C157.211 184.922 157.172 184.691 157.094 184.582C157.023 184.465 156.945 184.375 156.859 184.312L156.625 184.148C156.547 184.094 156.508 184 156.508 183.867C156.508 183.727 156.559 183.594 156.66 183.469C156.77 183.344 156.91 183.234 157.082 183.141C157.434 182.961 157.844 182.871 158.312 182.871C159.461 182.871 160.035 183.172 160.035 183.773C160.035 184.477 159.852 185.281 159.484 186.188C159.117 187.086 158.805 187.812 158.547 188.367L157.844 189.984C157.328 191.172 157.07 192.027 157.07 192.551C157.07 192.895 157.242 193.066 157.586 193.066C157.922 193.066 158.176 193.023 158.348 192.938C158.52 192.852 158.645 192.809 158.723 192.809ZM161.102 192.938C161.102 192.695 161.152 192.473 161.254 192.27C161.363 192.059 161.496 191.883 161.652 191.742C161.98 191.438 162.324 191.285 162.684 191.285C162.996 191.285 163.152 191.445 163.152 191.766C163.152 192.578 163.422 193.145 163.961 193.465C164.156 193.582 164.359 193.641 164.57 193.641C164.781 193.641 164.961 193.617 165.109 193.57C165.258 193.523 165.395 193.449 165.52 193.348C165.801 193.121 165.941 192.852 165.941 192.539C165.941 192.227 165.871 191.941 165.73 191.684C165.59 191.418 165.414 191.141 165.203 190.852L164.535 189.914C163.598 188.664 163.129 187.512 163.129 186.457C163.129 185.582 163.5 184.789 164.242 184.078C165.086 183.273 166.168 182.871 167.488 182.871C168.645 182.871 169.547 183.156 170.195 183.727C170.727 184.188 170.992 184.715 170.992 185.309C170.992 185.926 170.758 186.418 170.289 186.785C169.867 187.113 169.445 187.234 169.023 187.148C168.836 187.109 168.691 187.016 168.59 186.867C168.488 186.711 168.469 186.535 168.531 186.34C168.594 186.145 168.625 185.941 168.625 185.73C168.625 185.52 168.586 185.324 168.508 185.145C168.43 184.965 168.324 184.812 168.191 184.688C167.918 184.43 167.629 184.301 167.324 184.301C167.027 184.301 166.781 184.336 166.586 184.406C166.391 184.469 166.219 184.562 166.07 184.688C165.766 184.969 165.613 185.316 165.613 185.73C165.613 186.137 165.684 186.488 165.824 186.785C165.965 187.082 166.137 187.379 166.34 187.676C166.551 187.973 166.777 188.273 167.02 188.578C167.262 188.883 167.484 189.203 167.688 189.539C168.18 190.328 168.426 191.023 168.426 191.625C168.426 192.219 168.301 192.719 168.051 193.125C167.801 193.523 167.477 193.867 167.078 194.156C166.227 194.789 165.273 195.105 164.219 195.105C163.211 195.105 162.414 194.863 161.828 194.379C161.344 193.973 161.102 193.492 161.102 192.938ZM178.656 191.93C178.883 191.93 178.996 192.082 178.996 192.387C178.996 192.645 178.918 192.895 178.762 193.137C178.551 193.59 178.129 194.02 177.496 194.426C176.777 194.887 176.055 195.117 175.328 195.117C174.07 195.117 173.273 194.555 172.938 193.43C172.539 192.094 173.137 189.262 174.73 184.934C173.832 184.855 173.344 184.699 173.266 184.465C173.242 184.395 173.23 184.32 173.23 184.242C173.23 184.156 173.266 184.059 173.336 183.949C173.414 183.84 173.512 183.734 173.629 183.633C173.902 183.406 174.18 183.293 174.461 183.293H175.387C176.23 181.316 176.832 180.191 177.191 179.918C177.363 179.793 177.555 179.73 177.766 179.73C177.977 179.73 178.152 179.758 178.293 179.812C178.434 179.867 178.559 179.945 178.668 180.047C178.918 180.281 179.043 180.543 179.043 180.832C179.043 180.988 178.996 181.168 178.902 181.371L178.035 183.258H178.316C178.801 183.258 179.191 183.254 179.488 183.246C179.488 183.246 179.711 183.242 180.156 183.234C180.305 183.227 180.488 183.223 180.707 183.223C180.934 183.223 181.047 183.305 181.047 183.469C181.047 184.5 179.828 185.016 177.391 185.016H177.297L176.5 187.078C175.602 189.516 175.152 191.223 175.152 192.199C175.152 192.473 175.215 192.688 175.34 192.844C175.465 192.992 175.699 193.066 176.043 193.066C176.387 193.066 176.699 193.008 176.98 192.891C177.262 192.773 177.508 192.645 177.719 192.504C177.93 192.355 178.109 192.223 178.258 192.105C178.414 191.988 178.547 191.93 178.656 191.93ZM189.508 191.883C189.508 192.602 189.762 192.961 190.27 192.961C190.621 192.961 190.91 192.906 191.137 192.797C191.371 192.688 191.527 192.633 191.605 192.633C191.77 192.633 191.852 192.719 191.852 192.891C191.852 193.562 191.5 194.141 190.797 194.625C190.055 195.133 189.297 195.258 188.523 195C188.016 194.82 187.641 194.434 187.398 193.84C187.281 193.535 187.223 193.258 187.223 193.008C187.223 192.602 187.262 192.172 187.34 191.719C186.613 193.203 185.711 194.227 184.633 194.789C184.203 195.008 183.746 195.117 183.262 195.117C182.777 195.117 182.355 195.02 181.996 194.824C181.645 194.621 181.344 194.344 181.094 193.992C180.586 193.258 180.355 192.336 180.402 191.227C180.449 189.836 180.859 188.473 181.633 187.137C182.344 185.887 183.242 184.867 184.328 184.078C185.414 183.273 186.43 182.871 187.375 182.871C188.32 182.871 189.082 183.305 189.66 184.172C190.199 183.305 190.676 182.871 191.09 182.871C191.535 182.871 191.871 182.953 192.098 183.117C192.527 183.43 192.68 183.703 192.555 183.938C190.594 187.953 189.586 190.453 189.531 191.438C189.516 191.578 189.508 191.727 189.508 191.883ZM183.004 191.93C183.004 192.867 183.305 193.336 183.906 193.336C184.367 193.336 184.934 192.945 185.605 192.164C186.59 191.016 187.461 189.469 188.219 187.523C188.461 186.914 188.664 186.305 188.828 185.695C188.797 185.164 188.574 184.773 188.16 184.523C188.02 184.438 187.809 184.395 187.527 184.395C187.254 184.395 186.93 184.496 186.555 184.699C186.188 184.902 185.828 185.18 185.477 185.531C185.133 185.883 184.809 186.301 184.504 186.785C184.207 187.262 183.945 187.781 183.719 188.344C183.242 189.547 183.004 190.742 183.004 191.93ZM202.305 185.086C201.852 185.086 201.023 185.742 199.82 187.055C198.922 188.078 198.27 188.848 197.863 189.363L196.809 190.699C196.355 191.559 196 192.273 195.742 192.844L195.109 194.203C194.945 194.539 194.801 194.777 194.676 194.918C194.559 195.051 194.395 195.117 194.184 195.117C193.98 195.117 193.781 195.078 193.586 195C193.398 194.93 193.234 194.836 193.094 194.719C192.797 194.469 192.648 194.195 192.648 193.898C192.648 193.781 192.734 193.551 192.906 193.207L193.352 192.258C193.492 191.977 193.656 191.617 193.844 191.18L194.5 189.574C195.422 187.27 195.883 185.781 195.883 185.109C195.883 184.75 195.766 184.484 195.531 184.312L195.297 184.148C195.219 184.094 195.18 184 195.18 183.867C195.18 183.727 195.23 183.594 195.332 183.469C195.441 183.344 195.582 183.234 195.754 183.141C196.105 182.961 196.457 182.871 196.809 182.871C197.168 182.871 197.449 182.91 197.652 182.988C197.855 183.066 198.031 183.172 198.18 183.305C198.477 183.578 198.625 183.863 198.625 184.16C198.625 184.457 198.586 184.758 198.508 185.062C198.43 185.359 198.332 185.664 198.215 185.977C198.098 186.281 197.973 186.578 197.84 186.867C197.527 187.539 197.332 187.953 197.254 188.109C197.184 188.258 197.164 188.312 197.195 188.273C198.625 186.422 199.484 185.328 199.773 184.992C200.375 184.297 200.844 183.82 201.18 183.562C201.797 183.102 202.379 182.871 202.926 182.871C203.48 182.871 203.922 183.043 204.25 183.387C204.578 183.73 204.742 184.184 204.742 184.746C204.742 185.238 204.617 185.816 204.367 186.48C204.117 187.145 203.949 187.609 203.863 187.875L205.586 185.602L206.547 184.453C207.125 183.805 207.633 183.379 208.07 183.176C208.508 182.973 208.863 182.871 209.137 182.871C209.418 182.871 209.691 182.922 209.957 183.023C210.23 183.125 210.461 183.27 210.648 183.457C211.047 183.84 211.246 184.348 211.246 184.98C211.246 185.59 211.105 186.215 210.824 186.855C210.543 187.496 210.297 188.023 210.086 188.438C209.875 188.844 209.672 189.254 209.477 189.668C208.906 190.91 208.621 191.832 208.621 192.434C208.621 192.855 208.793 193.066 209.137 193.066C209.465 193.066 209.762 192.996 210.027 192.855C210.301 192.715 210.477 192.645 210.555 192.645C210.719 192.645 210.801 192.727 210.801 192.891C210.801 193.586 210.445 194.168 209.734 194.637C209.258 194.957 208.82 195.117 208.422 195.117C208.031 195.117 207.715 195.07 207.473 194.977C207.23 194.883 207.012 194.734 206.816 194.531C206.379 194.078 206.16 193.512 206.16 192.832C206.16 192.152 206.246 191.527 206.418 190.957C206.59 190.387 206.793 189.836 207.027 189.305C207.262 188.766 207.496 188.273 207.73 187.828C207.973 187.375 208.156 187.016 208.281 186.75C208.531 186.203 208.656 185.801 208.656 185.543C208.656 185.238 208.496 185.086 208.176 185.086C207.754 185.086 206.996 185.785 205.902 187.184C205.074 188.27 204.5 189.051 204.18 189.527L203.371 190.699C202.918 191.559 202.57 192.273 202.328 192.844L201.73 194.203C201.582 194.539 201.453 194.777 201.344 194.918C201.234 195.051 201.082 195.117 200.887 195.117C200.691 195.117 200.5 195.086 200.312 195.023C200.133 194.961 199.977 194.879 199.844 194.777C199.539 194.551 199.387 194.312 199.387 194.062C199.387 193.805 199.469 193.457 199.633 193.02C199.805 192.574 200.016 192.078 200.266 191.531L201.906 188.062C202.492 186.773 202.785 185.957 202.785 185.613C202.785 185.262 202.625 185.086 202.305 185.086ZM203.465 188.391C203.473 188.391 203.477 188.387 203.477 188.379L203.488 188.355C203.473 188.371 203.465 188.383 203.465 188.391ZM213.156 190.898C213.188 190.219 213.301 189.57 213.496 188.953C213.691 188.328 213.953 187.727 214.281 187.148C214.609 186.562 214.992 186.012 215.43 185.496C215.875 184.973 216.355 184.516 216.871 184.125C217.988 183.289 219.117 182.871 220.258 182.871C221.594 182.871 222.484 183.422 222.93 184.523C223.086 184.898 223.16 185.344 223.152 185.859C223.145 186.367 223.047 186.84 222.859 187.277C222.672 187.707 222.41 188.102 222.074 188.461C221.746 188.812 221.352 189.129 220.891 189.41C220.438 189.691 219.941 189.93 219.402 190.125C218.293 190.516 217.105 190.719 215.84 190.734C215.809 190.844 215.789 191.008 215.781 191.227C215.773 191.445 215.797 191.691 215.852 191.965C215.906 192.23 216 192.469 216.133 192.68C216.414 193.148 216.82 193.383 217.352 193.383C218.258 193.383 219.141 193.117 220 192.586C220.305 192.406 220.551 192.223 220.738 192.035C220.934 191.84 221.102 191.742 221.242 191.742C221.383 191.742 221.504 191.828 221.605 192C221.715 192.164 221.77 192.352 221.77 192.562C221.77 192.977 221.652 193.336 221.418 193.641C220.434 194.625 218.969 195.117 217.023 195.117C215.875 195.117 214.953 194.773 214.258 194.086C213.477 193.305 213.109 192.242 213.156 190.898ZM220 184.43C219.18 184.43 218.391 184.992 217.633 186.117C216.992 187.086 216.477 188.234 216.086 189.562C217.391 189.43 218.523 188.914 219.484 188.016C220.367 187.172 220.809 186.363 220.809 185.59C220.809 184.816 220.539 184.43 220 184.43ZM224.934 194.531C224.738 194.328 224.578 194.07 224.453 193.758C224.336 193.438 224.277 193.07 224.277 192.656C224.277 192.234 224.371 191.672 224.559 190.969C224.754 190.266 225 189.465 225.297 188.566L226.281 185.648C227.68 181.586 228.488 178.445 228.707 176.227C228.777 175.57 229.098 175.242 229.668 175.242C230.027 175.242 230.324 175.328 230.559 175.5C231.012 175.844 231.23 176.227 231.215 176.648C231.199 177.07 231.125 177.586 230.992 178.195C230.859 178.797 230.688 179.457 230.477 180.176C230.266 180.887 230.023 181.641 229.75 182.438L228.133 187.195C227.203 189.898 226.738 191.645 226.738 192.434C226.738 192.855 226.91 193.066 227.254 193.066C227.582 193.066 227.879 192.996 228.145 192.855C228.418 192.715 228.594 192.645 228.672 192.645C228.836 192.645 228.918 192.727 228.918 192.891C228.918 193.586 228.562 194.168 227.852 194.637C227.375 194.957 226.938 195.117 226.539 195.117C226.148 195.117 225.832 195.07 225.59 194.977C225.348 194.883 225.129 194.734 224.934 194.531ZM232.152 194.203C231.824 193.891 231.566 193.496 231.379 193.02C231.191 192.535 231.094 191.965 231.086 191.309C231.078 190.652 231.156 189.988 231.32 189.316C231.492 188.645 231.73 187.996 232.035 187.371C232.348 186.746 232.719 186.16 233.148 185.613C233.586 185.066 234.066 184.59 234.59 184.184C235.73 183.309 236.914 182.871 238.141 182.871C239.75 182.871 240.84 183.578 241.41 184.992C241.816 186.016 241.84 187.254 241.48 188.707C241.152 190.043 240.551 191.27 239.676 192.387C238.809 193.504 237.785 194.297 236.605 194.766C236.012 195 235.426 195.117 234.848 195.117C234.277 195.117 233.766 195.043 233.312 194.895C232.867 194.746 232.48 194.516 232.152 194.203ZM234.391 188.52C234.156 189.098 233.969 189.691 233.828 190.301C233.695 190.91 233.633 191.488 233.641 192.035C233.648 192.574 233.73 193 233.887 193.312C234.051 193.617 234.312 193.77 234.672 193.77C235.031 193.77 235.383 193.648 235.727 193.406C236.078 193.156 236.418 192.828 236.746 192.422C237.074 192.016 237.383 191.547 237.672 191.016C237.961 190.484 238.215 189.93 238.434 189.352C238.91 188.094 239.141 186.977 239.125 186C239.125 185.141 238.949 184.594 238.598 184.359C238.457 184.266 238.258 184.219 238 184.219C237.75 184.219 237.461 184.336 237.133 184.57C236.805 184.797 236.477 185.105 236.148 185.496C235.82 185.887 235.504 186.344 235.199 186.867C234.895 187.391 234.625 187.941 234.391 188.52ZM251.863 185.086C251.621 185.086 251.277 185.32 250.832 185.789C250.387 186.25 250 186.672 249.672 187.055L248.676 188.25L246.754 190.699C246.301 191.559 245.945 192.273 245.688 192.844L245.055 194.203C244.891 194.539 244.746 194.777 244.621 194.918C244.504 195.051 244.34 195.117 244.129 195.117C243.926 195.117 243.727 195.078 243.531 195C243.344 194.93 243.18 194.836 243.039 194.719C242.742 194.469 242.594 194.195 242.594 193.898C242.594 193.781 242.68 193.551 242.852 193.207L243.297 192.258C243.438 191.977 243.602 191.617 243.789 191.18L244.445 189.574C245.367 187.27 245.828 185.781 245.828 185.109C245.828 184.75 245.711 184.484 245.477 184.312L245.242 184.148C245.164 184.094 245.125 184 245.125 183.867C245.125 183.727 245.176 183.594 245.277 183.469C245.387 183.344 245.527 183.234 245.699 183.141C246.051 182.961 246.402 182.871 246.754 182.871C247.113 182.871 247.391 182.91 247.586 182.988C247.781 183.066 247.945 183.172 248.078 183.305C248.367 183.578 248.512 183.863 248.512 184.16C248.512 184.457 248.473 184.758 248.395 185.062C248.324 185.359 248.23 185.664 248.113 185.977C248.004 186.281 247.887 186.582 247.762 186.879C247.637 187.176 247.523 187.434 247.422 187.652L247.188 188.156C247.125 188.281 247.109 188.32 247.141 188.273C248.008 187.07 248.578 186.297 248.852 185.953L249.672 184.969C250.273 184.266 250.746 183.801 251.09 183.574C251.785 183.105 252.332 182.871 252.73 182.871C253.129 182.871 253.465 182.922 253.738 183.023C254.012 183.125 254.25 183.27 254.453 183.457C254.883 183.855 255.098 184.363 255.098 184.98C255.098 185.598 254.957 186.242 254.676 186.914C254.395 187.586 254.148 188.133 253.938 188.555C253.734 188.969 253.539 189.391 253.352 189.82C252.766 191.125 252.473 192.074 252.473 192.668C252.473 192.934 252.684 193.066 253.105 193.066C253.434 193.066 253.73 192.996 253.996 192.855C254.27 192.715 254.445 192.645 254.523 192.645C254.688 192.645 254.77 192.727 254.77 192.891C254.77 193.586 254.414 194.168 253.703 194.637C253.227 194.957 252.789 195.117 252.391 195.117C251.992 195.117 251.66 195.074 251.395 194.988C251.137 194.902 250.906 194.766 250.703 194.578C250.242 194.164 250.012 193.586 250.012 192.844C250.012 191.938 250.297 190.805 250.867 189.445C251.281 188.516 251.574 187.879 251.746 187.535L252.145 186.703C252.387 186.203 252.508 185.809 252.508 185.52C252.508 185.23 252.293 185.086 251.863 185.086Z" fill="white"/>
<path d="M187.5 0C229.114 4.96237e-07 269.545 13.8435 302.425 39.3499C335.305 64.8563 358.766 100.576 369.113 140.883C379.459 181.19 376.102 223.794 359.571 261.983C343.041 300.172 314.275 331.777 277.806 351.82L234.94 273.822C254.098 263.293 269.21 246.69 277.894 226.628C286.578 206.566 288.341 184.185 282.906 163.011C277.471 141.837 265.146 123.072 247.873 109.673C230.6 96.2737 209.361 89.0013 187.5 89.0013V0Z" fill="#BEF3C0"/>
<path d="M277.822 351.811C245.324 369.675 208.259 377.501 171.313 374.3C134.368 371.099 99.2013 357.013 70.2608 333.826C41.3203 310.638 19.9057 279.389 8.72493 244.031C-2.45579 208.672 -2.90046 170.793 7.44716 135.181L92.9135 160.016C87.4776 178.723 87.7112 198.622 93.5848 217.197C99.4583 235.772 110.708 252.188 125.911 264.369C141.114 276.55 159.588 283.949 178.997 285.631C198.405 287.313 217.877 283.201 234.948 273.817L277.822 351.811Z" fill="#AC94F1"/>
<path d="M7.33821 135.558C17.2778 101.082 36.9003 70.1827 63.8768 46.5264L122.557 113.443C108.386 125.87 98.0778 142.103 92.8563 160.213L7.33821 135.558Z" fill="#FFF0CA"/>
<path d="M62.9118 47.3785C88.673 24.4731 120.25 9.11274 154.173 2.9856L169.992 90.5697C152.172 93.7885 135.584 101.858 122.051 113.891L62.9118 47.3785Z" fill="#F9CF64"/>
<path d="M153.259 3.15308C165.951 0.795575 178.853 -0.244845 191.759 0.0483727L189.737 89.0267C182.957 88.8727 176.18 89.4193 169.512 90.6577L153.259 3.15308Z" fill="#F38FBF"/>
</svg>
