<svg width="162" height="72" viewBox="0 0 162 72" fill="none" xmlns="http://www.w3.org/2000/svg">
<path d="M9.43359 23.6445C8.73828 23.6445 8.12109 23.7812 7.58203 24.0547C7.05078 24.3203 6.60156 24.707 6.23438 25.2148C5.875 25.7227 5.60156 26.3359 5.41406 27.0547C5.22656 27.7734 5.13281 28.582 5.13281 29.4805C5.13281 30.6914 5.28125 31.7266 5.57812 32.5859C5.88281 33.4375 6.35156 34.0898 6.98438 34.543C7.61719 34.9883 8.43359 35.2109 9.43359 35.2109C10.1289 35.2109 10.8242 35.1328 11.5195 34.9766C12.2227 34.8203 12.9844 34.5977 13.8047 34.3086V37.3555C13.0469 37.668 12.3008 37.8906 11.5664 38.0234C10.832 38.1641 10.0078 38.2344 9.09375 38.2344C7.32812 38.2344 5.875 37.8711 4.73438 37.1445C3.60156 36.4102 2.76172 35.3867 2.21484 34.0742C1.66797 32.7539 1.39453 31.2148 1.39453 29.457C1.39453 28.1602 1.57031 26.9727 1.92188 25.8945C2.27344 24.8164 2.78906 23.8828 3.46875 23.0938C4.14844 22.3047 4.98828 21.6953 5.98828 21.2656C6.98828 20.8359 8.13672 20.6211 9.43359 20.6211C10.2852 20.6211 11.1367 20.7305 11.9883 20.9492C12.8477 21.1602 13.668 21.4531 14.4492 21.8281L13.2773 24.7812C12.6367 24.4766 11.9922 24.2109 11.3438 23.9844C10.6953 23.7578 10.0586 23.6445 9.43359 23.6445ZM20.7539 19.7656V23.4805C20.7539 24.1289 20.7305 24.7461 20.6836 25.332C20.6445 25.918 20.6133 26.332 20.5898 26.5742H20.7773C21.0586 26.1211 21.3906 25.7539 21.7734 25.4727C22.1641 25.1914 22.5938 24.9844 23.0625 24.8516C23.5312 24.7188 24.0352 24.6523 24.5742 24.6523C25.5195 24.6523 26.3438 24.8203 27.0469 25.1562C27.75 25.4844 28.2969 26.0039 28.6875 26.7148C29.0781 27.418 29.2734 28.332 29.2734 29.457V38H25.6992V30.3477C25.6992 29.4102 25.5273 28.7031 25.1836 28.2266C24.8398 27.75 24.3086 27.5117 23.5898 27.5117C22.8711 27.5117 22.3047 27.6797 21.8906 28.0156C21.4766 28.3438 21.1836 28.832 21.0117 29.4805C20.8398 30.1211 20.7539 30.9062 20.7539 31.8359V38H17.1797V19.7656H20.7539ZM40.2656 24.6523C40.4453 24.6523 40.6523 24.6641 40.8867 24.6875C41.1289 24.7031 41.3242 24.7266 41.4727 24.7578L41.2031 28.1094C41.0859 28.0703 40.918 28.043 40.6992 28.0273C40.4883 28.0039 40.3047 27.9922 40.1484 27.9922C39.6875 27.9922 39.2383 28.0508 38.8008 28.168C38.3711 28.2852 37.9844 28.4766 37.6406 28.7422C37.2969 29 37.0234 29.3438 36.8203 29.7734C36.625 30.1953 36.5273 30.7148 36.5273 31.332V38H32.9531V24.8984H35.6602L36.1875 27.1016H36.3633C36.6211 26.6562 36.9414 26.25 37.3242 25.8828C37.7148 25.5078 38.1562 25.2109 38.6484 24.9922C39.1484 24.7656 39.6875 24.6523 40.2656 24.6523ZM47.4258 24.8984V38H43.8516V24.8984H47.4258ZM45.6445 19.7656C46.1758 19.7656 46.6328 19.8906 47.0156 20.1406C47.3984 20.3828 47.5898 20.8398 47.5898 21.5117C47.5898 22.1758 47.3984 22.6367 47.0156 22.8945C46.6328 23.1445 46.1758 23.2695 45.6445 23.2695C45.1055 23.2695 44.6445 23.1445 44.2617 22.8945C43.8867 22.6367 43.6992 22.1758 43.6992 21.5117C43.6992 20.8398 43.8867 20.3828 44.2617 20.1406C44.6445 19.8906 45.1055 19.7656 45.6445 19.7656ZM60.3281 34.1094C60.3281 35 60.1172 35.7539 59.6953 36.3711C59.2812 36.9805 58.6602 37.4453 57.832 37.7656C57.0039 38.0781 55.9727 38.2344 54.7383 38.2344C53.8242 38.2344 53.0391 38.1758 52.3828 38.0586C51.7344 37.9414 51.0781 37.7461 50.4141 37.4727V34.5195C51.125 34.8398 51.8867 35.1055 52.6992 35.3164C53.5195 35.5195 54.2383 35.6211 54.8555 35.6211C55.5508 35.6211 56.0469 35.5195 56.3438 35.3164C56.6484 35.1055 56.8008 34.832 56.8008 34.4961C56.8008 34.2773 56.7383 34.082 56.6133 33.9102C56.4961 33.7305 56.2383 33.5312 55.8398 33.3125C55.4414 33.0859 54.8164 32.793 53.9648 32.4336C53.1445 32.0898 52.4688 31.7422 51.9375 31.3906C51.4141 31.0391 51.0234 30.625 50.7656 30.1484C50.5156 29.6641 50.3906 29.0508 50.3906 28.3086C50.3906 27.0977 50.8594 26.1875 51.7969 25.5781C52.7422 24.9609 54.0039 24.6523 55.582 24.6523C56.3945 24.6523 57.168 24.7344 57.9023 24.8984C58.6445 25.0625 59.4062 25.3242 60.1875 25.6836L59.1094 28.2617C58.4609 27.9805 57.8477 27.75 57.2695 27.5703C56.6992 27.3906 56.1172 27.3008 55.5234 27.3008C55 27.3008 54.6055 27.3711 54.3398 27.5117C54.0742 27.6523 53.9414 27.8672 53.9414 28.1562C53.9414 28.3672 54.0078 28.5547 54.1406 28.7188C54.2812 28.8828 54.5469 29.0664 54.9375 29.2695C55.3359 29.4648 55.918 29.7188 56.6836 30.0312C57.4258 30.3359 58.0703 30.6562 58.6172 30.9922C59.1641 31.3203 59.5859 31.7305 59.8828 32.2227C60.1797 32.707 60.3281 33.3359 60.3281 34.1094ZM68.6367 35.3867C69.0273 35.3867 69.4062 35.3477 69.7734 35.2695C70.1484 35.1914 70.5195 35.0938 70.8867 34.9766V37.6367C70.5039 37.8086 70.0273 37.9492 69.457 38.0586C68.8945 38.1758 68.2773 38.2344 67.6055 38.2344C66.8242 38.2344 66.1211 38.1094 65.4961 37.8594C64.8789 37.6016 64.3906 37.1602 64.0312 36.5352C63.6797 35.9023 63.5039 35.0234 63.5039 33.8984V27.582H61.793V26.0703L63.7617 24.875L64.793 22.1094H67.0781V24.8984H70.7461V27.582H67.0781V33.8984C67.0781 34.3984 67.2188 34.7734 67.5 35.0234C67.7891 35.2656 68.168 35.3867 68.6367 35.3867ZM78.9141 24.6289C80.6719 24.6289 82.0195 25.0117 82.957 25.7773C83.8945 26.543 84.3633 27.707 84.3633 29.2695V38H81.8672L81.1758 36.2188H81.082C80.707 36.6875 80.3242 37.0703 79.9336 37.3672C79.543 37.6641 79.0938 37.8828 78.5859 38.0234C78.0781 38.1641 77.4609 38.2344 76.7344 38.2344C75.9609 38.2344 75.2656 38.0859 74.6484 37.7891C74.0391 37.4922 73.5586 37.0391 73.207 36.4297C72.8555 35.8125 72.6797 35.0312 72.6797 34.0859C72.6797 32.6953 73.168 31.6719 74.1445 31.0156C75.1211 30.3516 76.5859 29.9844 78.5391 29.9141L80.8125 29.8438V29.2695C80.8125 28.582 80.6328 28.0781 80.2734 27.7578C79.9141 27.4375 79.4141 27.2773 78.7734 27.2773C78.1406 27.2773 77.5195 27.3672 76.9102 27.5469C76.3008 27.7266 75.6914 27.9531 75.082 28.2266L73.8984 25.8125C74.5938 25.4453 75.3711 25.1562 76.2305 24.9453C77.0977 24.7344 77.9922 24.6289 78.9141 24.6289ZM80.8125 31.9297L79.4297 31.9766C78.2734 32.0078 77.4688 32.2148 77.0156 32.5977C76.5703 32.9805 76.3477 33.4844 76.3477 34.1094C76.3477 34.6562 76.5078 35.0469 76.8281 35.2812C77.1484 35.5078 77.5664 35.6211 78.082 35.6211C78.8477 35.6211 79.4922 35.3945 80.0156 34.9414C80.5469 34.4883 80.8125 33.8438 80.8125 33.0078V31.9297ZM103.441 24.6523C104.926 24.6523 106.047 25.0352 106.805 25.8008C107.57 26.5586 107.953 27.7773 107.953 29.457V38H104.367V30.3477C104.367 29.4102 104.207 28.7031 103.887 28.2266C103.566 27.75 103.07 27.5117 102.398 27.5117C101.453 27.5117 100.781 27.8516 100.383 28.5312C99.9844 29.2031 99.7852 30.168 99.7852 31.4258V38H96.2109V30.3477C96.2109 29.7227 96.1406 29.1992 96 28.7773C95.8594 28.3555 95.6445 28.0391 95.3555 27.8281C95.0664 27.6172 94.6953 27.5117 94.2422 27.5117C93.5781 27.5117 93.0547 27.6797 92.6719 28.0156C92.2969 28.3438 92.0273 28.832 91.8633 29.4805C91.707 30.1211 91.6289 30.9062 91.6289 31.8359V38H88.0547V24.8984H90.7852L91.2656 26.5742H91.4648C91.7305 26.1211 92.0625 25.7539 92.4609 25.4727C92.8672 25.1914 93.3125 24.9844 93.7969 24.8516C94.2812 24.7188 94.7734 24.6523 95.2734 24.6523C96.2344 24.6523 97.0469 24.8086 97.7109 25.1211C98.3828 25.4336 98.8984 25.918 99.2578 26.5742H99.5742C99.9648 25.9023 100.516 25.4141 101.227 25.1094C101.945 24.8047 102.684 24.6523 103.441 24.6523ZM117.035 24.6523C118.246 24.6523 119.289 24.8867 120.164 25.3555C121.039 25.8164 121.715 26.4883 122.191 27.3711C122.668 28.2539 122.906 29.332 122.906 30.6055V32.3398H114.457C114.496 33.3477 114.797 34.1406 115.359 34.7188C115.93 35.2891 116.719 35.5742 117.727 35.5742C118.562 35.5742 119.328 35.4883 120.023 35.3164C120.719 35.1445 121.434 34.8867 122.168 34.543V37.3086C121.52 37.6289 120.84 37.8633 120.129 38.0117C119.426 38.1602 118.57 38.2344 117.562 38.2344C116.25 38.2344 115.086 37.9922 114.07 37.5078C113.062 37.0234 112.27 36.2852 111.691 35.293C111.121 34.3008 110.836 33.0508 110.836 31.543C110.836 30.0117 111.094 28.7383 111.609 27.7227C112.133 26.6992 112.859 25.9336 113.789 25.4258C114.719 24.9102 115.801 24.6523 117.035 24.6523ZM117.059 27.1953C116.363 27.1953 115.785 27.418 115.324 27.8633C114.871 28.3086 114.609 29.0078 114.539 29.9609H119.555C119.547 29.4297 119.449 28.957 119.262 28.543C119.082 28.1289 118.809 27.8008 118.441 27.5586C118.082 27.3164 117.621 27.1953 117.059 27.1953ZM129.387 38H125.812V19.7656H129.387V38ZM145.055 31.4258C145.055 32.5195 144.906 33.4883 144.609 34.332C144.32 35.1758 143.895 35.8906 143.332 36.4766C142.777 37.0547 142.105 37.4922 141.316 37.7891C140.535 38.0859 139.652 38.2344 138.668 38.2344C137.746 38.2344 136.898 38.0859 136.125 37.7891C135.359 37.4922 134.691 37.0547 134.121 36.4766C133.559 35.8906 133.121 35.1758 132.809 34.332C132.504 33.4883 132.352 32.5195 132.352 31.4258C132.352 29.9727 132.609 28.7422 133.125 27.7344C133.641 26.7266 134.375 25.9609 135.328 25.4375C136.281 24.9141 137.418 24.6523 138.738 24.6523C139.965 24.6523 141.051 24.9141 141.996 25.4375C142.949 25.9609 143.695 26.7266 144.234 27.7344C144.781 28.7422 145.055 29.9727 145.055 31.4258ZM135.996 31.4258C135.996 32.2852 136.09 33.0078 136.277 33.5938C136.465 34.1797 136.758 34.6211 137.156 34.918C137.555 35.2148 138.074 35.3633 138.715 35.3633C139.348 35.3633 139.859 35.2148 140.25 34.918C140.648 34.6211 140.938 34.1797 141.117 33.5938C141.305 33.0078 141.398 32.2852 141.398 31.4258C141.398 30.5586 141.305 29.8398 141.117 29.2695C140.938 28.6914 140.648 28.2578 140.25 27.9688C139.852 27.6797 139.332 27.5352 138.691 27.5352C137.746 27.5352 137.059 27.8594 136.629 28.5078C136.207 29.1562 135.996 30.1289 135.996 31.4258ZM155.449 24.6523C156.848 24.6523 157.973 25.0352 158.824 25.8008C159.676 26.5586 160.102 27.7773 160.102 29.457V38H156.527V30.3477C156.527 29.4102 156.355 28.7031 156.012 28.2266C155.676 27.75 155.145 27.5117 154.418 27.5117C153.324 27.5117 152.578 27.8828 152.18 28.625C151.781 29.3672 151.582 30.4375 151.582 31.8359V38H148.008V24.8984H150.738L151.219 26.5742H151.418C151.699 26.1211 152.047 25.7539 152.461 25.4727C152.883 25.1914 153.348 24.9844 153.855 24.8516C154.371 24.7188 154.902 24.6523 155.449 24.6523Z" fill="#4C2A5B"/>
<path d="M3.62109 59H2.41406V41.8672H11.7891V42.957H3.62109V50.2578H11.3438V51.3359H3.62109V59ZM28.75 52.6133C28.75 53.5977 28.6289 54.4961 28.3867 55.3086C28.1445 56.1133 27.7852 56.8086 27.3086 57.3945C26.832 57.9805 26.2383 58.4336 25.5273 58.7539C24.8242 59.0742 24.0039 59.2344 23.0664 59.2344C22.1758 59.2344 21.3828 59.0781 20.6875 58.7656C19.9922 58.4453 19.4023 57.9922 18.918 57.4062C18.4414 56.8203 18.0781 56.125 17.8281 55.3203C17.5781 54.5078 17.4531 53.6055 17.4531 52.6133C17.4531 51.2461 17.6797 50.0703 18.1328 49.0859C18.5938 48.0938 19.25 47.3359 20.1016 46.8125C20.9609 46.2812 21.9883 46.0156 23.1836 46.0156C24.418 46.0156 25.4453 46.2969 26.2656 46.8594C27.0938 47.4141 27.7148 48.1875 28.1289 49.1797C28.543 50.1719 28.75 51.3164 28.75 52.6133ZM18.6719 52.6133C18.6719 53.7305 18.832 54.707 19.1523 55.543C19.4727 56.3789 19.957 57.0312 20.6055 57.5C21.2617 57.9688 22.0898 58.2031 23.0898 58.2031C24.1133 58.2031 24.9531 57.9688 25.6094 57.5C26.2656 57.0312 26.75 56.375 27.0625 55.5312C27.375 54.6875 27.5312 53.7148 27.5312 52.6133C27.5312 51.543 27.3828 50.5898 27.0859 49.7539C26.7891 48.918 26.3203 48.2617 25.6797 47.7852C25.0391 47.3008 24.2031 47.0586 23.1719 47.0586C21.6953 47.0586 20.5742 47.5508 19.8086 48.5352C19.0508 49.5195 18.6719 50.8789 18.6719 52.6133ZM46.168 46.2617V59H45.207L45.0312 56.7031H44.9609C44.7422 57.1719 44.4336 57.5977 44.0352 57.9805C43.6367 58.3633 43.1484 58.668 42.5703 58.8945C41.9922 59.1211 41.3203 59.2344 40.5547 59.2344C39.5781 59.2344 38.7578 59.0664 38.0938 58.7305C37.4375 58.3867 36.9414 57.8711 36.6055 57.1836C36.2695 56.4961 36.1016 55.6367 36.1016 54.6055V46.2617H37.2852V54.4883C37.2852 55.7617 37.5703 56.6992 38.1406 57.3008C38.7188 57.9023 39.5625 58.2031 40.6719 58.2031C41.6094 58.2031 42.3945 58.0234 43.0273 57.6641C43.668 57.3047 44.1523 56.7617 44.4805 56.0352C44.8164 55.3008 44.9844 54.3867 44.9844 53.293V46.2617H46.168ZM60.0586 46.0156C61.4883 46.0156 62.5859 46.3906 63.3516 47.1406C64.1172 47.8906 64.5 49.0664 64.5 50.668V59H63.3281V50.7383C63.3281 49.4727 63.0391 48.543 62.4609 47.9492C61.8828 47.3555 61.043 47.0586 59.9414 47.0586C58.543 47.0586 57.4727 47.4688 56.7305 48.2891C55.9961 49.1016 55.6289 50.332 55.6289 51.9805V59H54.4453V46.2617H55.4062L55.582 48.582H55.6523C55.8789 48.1055 56.1875 47.6758 56.5781 47.293C56.9766 46.9023 57.4648 46.5938 58.043 46.3672C58.6211 46.1328 59.293 46.0156 60.0586 46.0156ZM77.2422 59.2344C75.5 59.2344 74.1719 58.6875 73.2578 57.5938C72.3516 56.4922 71.8984 54.8906 71.8984 52.7891C71.8984 50.5859 72.3789 48.9062 73.3398 47.75C74.3008 46.5938 75.6406 46.0156 77.3594 46.0156C78.0938 46.0156 78.7305 46.1289 79.2695 46.3555C79.8164 46.582 80.2734 46.8906 80.6406 47.2812C81.0156 47.6641 81.3047 48.1016 81.5078 48.5938H81.6016C81.5703 48.1797 81.5469 47.7344 81.5312 47.2578C81.5156 46.7812 81.5078 46.3438 81.5078 45.9453V40.7656H82.6914V59H81.7305L81.5781 56.668H81.5078C81.2969 57.1367 81.0039 57.5664 80.6289 57.957C80.2617 58.3477 79.8008 58.6602 79.2461 58.8945C78.6914 59.1211 78.0234 59.2344 77.2422 59.2344ZM77.3711 58.2031C78.8711 58.2031 79.9375 57.7383 80.5703 56.8086C81.2031 55.8711 81.5195 54.5352 81.5195 52.8008V52.6133C81.5195 50.8164 81.2031 49.4414 80.5703 48.4883C79.9375 47.5273 78.9062 47.0469 77.4766 47.0469C76.0625 47.0469 74.9805 47.5391 74.2305 48.5234C73.4883 49.5078 73.1172 50.9375 73.1172 52.8125C73.1172 54.5781 73.4648 55.918 74.1602 56.832C74.8633 57.7461 75.9336 58.2031 77.3711 58.2031ZM95.375 46.0391C96.7734 46.0391 97.8203 46.3906 98.5156 47.0938C99.2109 47.7969 99.5586 48.918 99.5586 50.457V59H98.6445L98.4336 56.7734H98.3633C98.0898 57.25 97.7578 57.6758 97.3672 58.0508C96.9766 58.418 96.4961 58.707 95.9258 58.918C95.3633 59.1289 94.6758 59.2344 93.8633 59.2344C93.043 59.2344 92.3398 59.0977 91.7539 58.8242C91.1758 58.5508 90.7266 58.1523 90.4062 57.6289C90.0938 57.1055 89.9375 56.4688 89.9375 55.7188C89.9375 54.4531 90.4609 53.4922 91.5078 52.8359C92.5547 52.1719 94.0586 51.7969 96.0195 51.7109L98.3867 51.5938V50.668C98.3867 49.3633 98.1289 48.4336 97.6133 47.8789C97.0977 47.3242 96.3359 47.0469 95.3281 47.0469C94.6719 47.0469 94.0391 47.1328 93.4297 47.3047C92.8281 47.4688 92.2148 47.707 91.5898 48.0195L91.2148 47.0352C91.8242 46.7461 92.4766 46.5078 93.1719 46.3203C93.875 46.1328 94.6094 46.0391 95.375 46.0391ZM98.375 52.5195L96.1484 52.6133C94.5312 52.6914 93.3008 52.9805 92.457 53.4805C91.6133 53.9805 91.1914 54.7305 91.1914 55.7305C91.1914 56.5352 91.4414 57.1523 91.9414 57.582C92.4492 58.0117 93.1523 58.2266 94.0508 58.2266C95.4492 58.2266 96.5156 57.8281 97.25 57.0312C97.9922 56.2344 98.3672 55.1484 98.375 53.7734V52.5195ZM111.094 58.2148C111.461 58.2148 111.801 58.1875 112.113 58.1328C112.434 58.0781 112.715 58.0078 112.957 57.9219V58.9062C112.707 58.9922 112.414 59.0664 112.078 59.1289C111.742 59.1992 111.371 59.2344 110.965 59.2344C110.246 59.2344 109.648 59.1016 109.172 58.8359C108.695 58.5625 108.336 58.1523 108.094 57.6055C107.852 57.0508 107.73 56.3477 107.73 55.4961V47.2461H105.832V46.543L107.719 46.1797L108.129 43.1797H108.914V46.2617H112.887V47.2461H108.914V55.4258C108.914 56.3398 109.082 57.0352 109.418 57.5117C109.762 57.9805 110.32 58.2148 111.094 58.2148ZM120.871 46.2617V59H119.688V46.2617H120.871ZM120.297 41.5508C120.594 41.5508 120.812 41.6406 120.953 41.8203C121.094 41.9922 121.164 42.2266 121.164 42.5234C121.164 42.8203 121.094 43.0547 120.953 43.2266C120.812 43.3984 120.594 43.4844 120.297 43.4844C120.016 43.4844 119.805 43.3984 119.664 43.2266C119.523 43.0547 119.453 42.8203 119.453 42.5234C119.453 42.2266 119.523 41.9922 119.664 41.8203C119.805 41.6406 120.016 41.5508 120.297 41.5508ZM139.695 52.6133C139.695 53.5977 139.574 54.4961 139.332 55.3086C139.09 56.1133 138.73 56.8086 138.254 57.3945C137.777 57.9805 137.184 58.4336 136.473 58.7539C135.77 59.0742 134.949 59.2344 134.012 59.2344C133.121 59.2344 132.328 59.0781 131.633 58.7656C130.938 58.4453 130.348 57.9922 129.863 57.4062C129.387 56.8203 129.023 56.125 128.773 55.3203C128.523 54.5078 128.398 53.6055 128.398 52.6133C128.398 51.2461 128.625 50.0703 129.078 49.0859C129.539 48.0938 130.195 47.3359 131.047 46.8125C131.906 46.2812 132.934 46.0156 134.129 46.0156C135.363 46.0156 136.391 46.2969 137.211 46.8594C138.039 47.4141 138.66 48.1875 139.074 49.1797C139.488 50.1719 139.695 51.3164 139.695 52.6133ZM129.617 52.6133C129.617 53.7305 129.777 54.707 130.098 55.543C130.418 56.3789 130.902 57.0312 131.551 57.5C132.207 57.9688 133.035 58.2031 134.035 58.2031C135.059 58.2031 135.898 57.9688 136.555 57.5C137.211 57.0312 137.695 56.375 138.008 55.5312C138.32 54.6875 138.477 53.7148 138.477 52.6133C138.477 51.543 138.328 50.5898 138.031 49.7539C137.734 48.918 137.266 48.2617 136.625 47.7852C135.984 47.3008 135.148 47.0586 134.117 47.0586C132.641 47.0586 131.52 47.5508 130.754 48.5352C129.996 49.5195 129.617 50.8789 129.617 52.6133ZM152.824 46.0156C154.254 46.0156 155.352 46.3906 156.117 47.1406C156.883 47.8906 157.266 49.0664 157.266 50.668V59H156.094V50.7383C156.094 49.4727 155.805 48.543 155.227 47.9492C154.648 47.3555 153.809 47.0586 152.707 47.0586C151.309 47.0586 150.238 47.4688 149.496 48.2891C148.762 49.1016 148.395 50.332 148.395 51.9805V59H147.211V46.2617H148.172L148.348 48.582H148.418C148.645 48.1055 148.953 47.6758 149.344 47.293C149.742 46.9023 150.23 46.5938 150.809 46.3672C151.387 46.1328 152.059 46.0156 152.824 46.0156Z" fill="#DC8B42"/>
</svg>
