<svg width="135" height="32" viewBox="0 0 135 32" fill="none" xmlns="http://www.w3.org/2000/svg">
<g opacity="0.6">
<path d="M38.6121 9.48191H41.999V23.1319H38.6121V9.48191ZM43.3495 17.9974C43.3495 14.6164 45.4598 12.5899 48.6251 12.5899C51.7905 12.5899 53.9007 14.6164 53.9007 17.9974C53.9007 21.3784 51.8643 23.4259 48.6251 23.4259C45.3859 23.4259 43.3495 21.4519 43.3495 17.9974ZM50.5454 17.9974C50.5454 16.1389 49.8174 15.0469 48.6568 15.0469C47.4961 15.0469 46.7787 16.0969 46.7787 17.9974C46.7787 19.8979 47.4961 20.9374 48.6568 20.9374C49.8174 20.9374 50.5665 19.8979 50.5665 18.0079L50.5454 17.9974ZM55.2512 23.8354H58.5221C58.671 24.1858 58.931 24.4782 59.2625 24.6678C59.594 24.8573 59.9788 24.9338 60.358 24.8854C61.6558 24.8854 62.331 24.1924 62.331 23.1634V21.2734H62.3416C62.0621 21.8619 61.6101 22.3524 61.0451 22.6804C60.4801 23.0084 59.8286 23.1585 59.1763 23.1109C56.6967 23.1109 55.0508 21.2314 55.0508 17.9974C55.0508 14.7634 56.6229 12.7474 59.2712 12.7474C59.9403 12.7118 60.604 12.8835 61.1709 13.2389C61.7378 13.5943 62.18 14.116 62.4366 14.7319H62.3416V12.8314H65.6969V23.0584C65.6969 25.5259 63.5022 27.0694 60.2736 27.0694C57.3404 27.0589 55.4623 25.7254 55.2723 23.8459L55.2512 23.8354ZM62.3416 17.9974C62.3416 16.3489 61.5819 15.3094 60.3791 15.3094C59.1763 15.3094 58.4377 16.3594 58.4377 17.9974C58.4377 19.6354 59.1657 20.6014 60.3791 20.6014C61.5925 20.6014 62.3416 19.7089 62.3416 17.9974ZM67.0368 17.9974C67.0368 14.6164 69.1471 12.5899 72.3124 12.5899C75.4778 12.5899 77.588 14.6164 77.588 17.9974C77.588 21.3784 75.5411 23.4259 72.3124 23.4259C69.0838 23.4259 67.058 21.4519 67.058 17.9974H67.0368ZM74.2327 17.9974C74.2327 16.1389 73.4942 15.0469 72.3441 15.0469C71.194 15.0469 70.466 16.0969 70.466 17.9974C70.466 19.8979 71.1835 20.9374 72.3441 20.9374C73.5047 20.9374 74.2538 19.8979 74.2538 18.0079L74.2327 17.9974ZM78.9596 10.3429C78.9449 9.99958 79.0337 9.65972 79.2147 9.36703C79.3956 9.07435 79.6605 8.84224 79.9751 8.70057C80.2897 8.55889 80.6397 8.51413 80.98 8.57204C81.3204 8.62995 81.6356 8.78788 81.8851 9.02552C82.1345 9.26316 82.3068 9.56963 82.3798 9.90551C82.4527 10.2414 82.4231 10.5913 82.2945 10.9103C82.166 11.2292 81.9446 11.5026 81.6586 11.6953C81.3727 11.888 81.0353 11.9911 80.69 11.9914C80.4693 11.997 80.2497 11.9589 80.044 11.8793C79.8382 11.7998 79.6504 11.6803 79.4913 11.528C79.3323 11.3756 79.2053 11.1933 79.1177 10.9917C79.03 10.79 78.9835 10.5731 78.9807 10.3534L78.9596 10.3429ZM78.9596 12.8209H82.3888V23.1739H79.0124L78.9596 12.8209ZM94.7231 17.9974C94.7231 21.3679 93.2037 23.3209 90.6187 23.3209C89.9568 23.3615 89.2985 23.1991 88.7324 22.8554C88.1663 22.5118 87.7199 22.0036 87.4533 21.3994H87.39V26.5024H84.0031V12.8524H87.3689V14.7004H87.4322C87.6897 14.0843 88.1317 13.5622 88.6982 13.2052C89.2646 12.8482 89.9278 12.6737 90.5975 12.7054C93.2564 12.6844 94.7863 14.6269 94.7863 18.0079L94.7231 17.9974ZM91.2728 17.9974C91.2728 16.3594 90.5026 15.2989 89.3103 15.2989C88.118 15.2989 87.3689 16.3489 87.3584 17.9974C87.3478 19.6459 88.118 20.6854 89.3103 20.6854C90.5026 20.6854 91.3361 19.7089 91.3361 18.0079L91.2728 17.9974ZM100.505 12.5794C103.343 12.5794 105.105 13.9129 105.126 16.0549H102.035C102.035 15.3094 101.412 14.8474 100.484 14.8474C99.5555 14.8474 99.1123 15.2044 99.1123 15.7399C99.1123 16.2754 99.5027 16.4434 100.284 16.6009L102.457 17.0419C104.567 17.4829 105.411 18.3229 105.411 19.8874C105.411 21.9874 103.459 23.4154 100.558 23.4154C97.6563 23.4154 95.7676 22.0294 95.6304 19.9189H98.9119C99.0068 20.6854 99.6188 21.1369 100.611 21.1369C101.602 21.1369 102.067 20.8219 102.067 20.2654C102.067 19.7089 101.75 19.6144 100.938 19.4464L98.9752 19.0369C96.9388 18.6064 95.8731 17.5459 95.8731 15.9604C95.9364 13.9024 97.709 12.5899 100.568 12.5899L100.505 12.5794ZM116.754 23.1634H113.472V21.2209H113.409C113.225 21.8688 112.825 22.4351 112.275 22.8264C111.724 23.2177 111.056 23.4106 110.381 23.3734C109.871 23.3899 109.363 23.299 108.891 23.1064C108.419 22.9139 107.993 22.6242 107.641 22.2564C107.29 21.8885 107.02 21.4508 106.85 20.972C106.681 20.4931 106.614 19.984 106.656 19.4779V12.8314H110.043V18.7534C110.043 19.9714 110.687 20.6329 111.742 20.6329C111.99 20.6311 112.234 20.5764 112.458 20.4725C112.683 20.3687 112.882 20.2182 113.043 20.031C113.204 19.8439 113.323 19.6246 113.392 19.3879C113.46 19.1512 113.477 18.9026 113.441 18.6589V12.8314H116.817L116.754 23.1634ZM118.389 12.8209H121.681V14.8159H121.755C121.937 14.1768 122.327 13.6158 122.863 13.2206C123.4 12.8254 124.053 12.6184 124.72 12.6319C125.39 12.5739 126.057 12.7667 126.592 13.1726C127.127 13.5784 127.49 14.1681 127.611 14.8264H127.759C127.97 14.1646 128.394 13.5907 128.967 13.1938C129.539 12.797 130.227 12.5994 130.924 12.6319C131.387 12.6144 131.849 12.6944 132.279 12.8666C132.709 13.0389 133.097 13.2996 133.419 13.6317C133.741 13.9637 133.988 14.3596 134.146 14.7935C134.303 15.2274 134.367 15.6894 134.332 16.1494V23.1739H130.924V17.0104C130.924 15.9604 130.428 15.3724 129.468 15.3724C129.255 15.3689 129.044 15.4113 128.849 15.4967C128.654 15.582 128.48 15.7083 128.339 15.8669C128.197 16.0255 128.092 16.2126 128.03 16.4154C127.968 16.6182 127.951 16.8319 127.98 17.0419V23.1739H124.752V16.9789C124.752 15.9289 124.235 15.3724 123.306 15.3724C123.091 15.3707 122.878 15.4148 122.681 15.5018C122.485 15.5888 122.309 15.7166 122.166 15.8768C122.023 16.0369 121.916 16.2255 121.853 16.4301C121.789 16.6347 121.77 16.8505 121.797 17.0629V23.1739H118.41L118.389 12.8209Z" fill="#374151"/>
<path d="M31.912 10.3745C31.9121 8.28468 31.278 6.24355 30.0926 4.51846C28.9073 2.79337 27.226 1.46476 25.2691 0.706655C23.3121 -0.0514509 21.1707 -0.203703 19.1253 0.269839C17.08 0.74338 15.226 1.82064 13.8062 3.36051H0.638428V31.0175H28.4407V18.092C29.5319 17.1207 30.4051 15.9314 31.0032 14.6016C31.6013 13.2718 31.911 11.8314 31.912 10.3745ZM26.5626 10.3745C26.5647 11.3759 26.2682 12.3554 25.7106 13.1891C25.1531 14.0228 24.3595 14.6731 23.4304 15.0577C22.5013 15.4424 21.4785 15.5441 20.4912 15.35C19.504 15.1559 18.5969 14.6748 17.8846 13.9674C17.1723 13.26 16.6869 12.3582 16.4898 11.3762C16.2927 10.3942 16.3928 9.37607 16.7774 8.45068C17.162 7.52529 17.8138 6.73425 18.6504 6.17767C19.487 5.62109 20.4706 5.32401 21.4769 5.324C22.8239 5.324 24.1159 5.85577 25.0693 6.80262C26.0227 7.74947 26.5598 9.03407 26.5626 10.3745ZM23.0912 25.694H5.98785V8.68401H11.2001C11.0994 9.24204 11.0465 9.80757 11.0419 10.3745C11.0446 13.1278 12.1449 15.7675 14.1013 17.7144C16.0576 19.6613 18.7102 20.7562 21.4769 20.759C22.0178 20.7562 22.5576 20.7105 23.0912 20.6225V25.694Z" fill="#374151"/>
</g>
</svg>
