<svg width="127" height="29" viewBox="0 0 127 29" fill="none" xmlns="http://www.w3.org/2000/svg">
<g opacity="0.6">
<path d="M37.1113 8.29369H40.2767V21.0302H37.1113V8.29369ZM41.5323 16.2212C41.5323 13.0712 43.4737 11.1917 46.4702 11.1917C49.4667 11.1917 51.4081 13.0712 51.4081 16.2212C51.4081 19.3712 49.5089 21.2612 46.4702 21.2612C43.4315 21.2612 41.5323 19.4237 41.5323 16.2212ZM48.2322 16.2212C48.2322 14.4887 47.5464 13.4702 46.4702 13.4702C45.394 13.4702 44.7187 14.5202 44.7187 16.2212C44.7187 17.9222 45.3834 18.9512 46.4702 18.9512C47.557 18.9512 48.2322 17.9852 48.2322 16.2317V16.2212ZM52.6004 21.6497H55.6391C55.7837 21.9694 56.0282 22.2341 56.3362 22.4044C56.6442 22.5747 56.9992 22.6414 57.3484 22.5947C58.5513 22.5947 59.1843 21.9437 59.1843 20.9987V19.2347H59.121C58.8688 19.7753 58.4596 20.2283 57.9462 20.5353C57.4327 20.8422 56.8386 20.989 56.2406 20.9567C53.9299 20.9567 52.3999 19.2032 52.3999 16.1897C52.3999 13.1762 53.856 11.2757 56.2828 11.2757C56.8996 11.2516 57.509 11.4157 58.0295 11.746C58.55 12.0763 58.9566 12.557 59.1949 13.1237V11.3702H62.3602V20.9252C62.3602 23.2247 60.3238 24.6527 57.3168 24.6527C54.5207 24.6527 52.7798 23.4032 52.6004 21.6602V21.6497ZM59.1949 16.2107C59.1949 14.6777 58.4879 13.7117 57.3695 13.7117C56.2511 13.7117 55.5653 14.6672 55.5653 16.2107C55.5653 17.7542 56.2406 18.6257 57.3695 18.6257C58.4985 18.6257 59.1949 17.7752 59.1949 16.2212V16.2107ZM63.5525 16.2107C63.5525 13.0607 65.4939 11.1812 68.4904 11.1812C71.4869 11.1812 73.4389 13.0607 73.4389 16.2107C73.4389 19.3607 71.5397 21.2507 68.4904 21.2507C65.4411 21.2507 63.5525 19.4237 63.5525 16.2212V16.2107ZM70.2525 16.2107C70.2525 14.4782 69.5666 13.4597 68.4904 13.4597C67.4142 13.4597 66.7917 14.5202 66.7917 16.2317C66.7917 17.9432 67.4564 18.9617 68.5326 18.9617C69.6088 18.9617 70.2525 17.9852 70.2525 16.2317V16.2107ZM74.6417 9.08119C74.6334 8.76315 74.7202 8.44982 74.8911 8.18093C75.0619 7.91203 75.3092 7.69967 75.6015 7.57077C75.8938 7.44187 76.2179 7.40224 76.5328 7.4569C76.8478 7.51155 77.1393 7.65804 77.3705 7.87778C77.6017 8.09752 77.7621 8.38063 77.8314 8.69121C77.9008 9.00178 77.8758 9.32585 77.7599 9.62232C77.6439 9.91879 77.4421 10.1743 77.18 10.3565C76.9179 10.5387 76.6073 10.6393 76.2877 10.6457C76.0758 10.6602 75.8632 10.6309 75.6633 10.5597C75.4633 10.4885 75.2803 10.3769 75.1257 10.232C74.9711 10.087 74.8483 9.91186 74.765 9.71743C74.6818 9.523 74.6398 9.31354 74.6417 9.10219V9.08119ZM74.6417 11.3912H77.8071V21.0302H74.6417V11.3912ZM89.2973 16.2107C89.2973 19.3607 87.894 21.1562 85.4883 21.1562C84.8714 21.1956 84.2573 21.0455 83.7289 20.7263C83.2005 20.407 82.7834 19.934 82.534 19.3712H82.4707V24.1172H79.3053V11.3702H82.4707V13.0922H82.534C82.7718 12.5201 83.181 12.0347 83.7058 11.7022C84.2306 11.3697 84.8456 11.2061 85.4672 11.2337C87.894 11.2757 89.3395 13.0817 89.3395 16.2317L89.2973 16.2107ZM86.1319 16.2107C86.1319 14.6777 85.425 13.7012 84.3171 13.7012C83.2093 13.7012 82.5023 14.6882 82.4918 16.2107C82.4812 17.7332 83.2093 18.7097 84.3171 18.7097C85.425 18.7097 86.1319 17.7542 86.1319 16.2317V16.2107ZM94.7311 11.1707C97.3583 11.1707 98.9516 12.4097 99.0254 14.3942H96.145C96.145 13.7117 95.5752 13.2812 94.6994 13.2812C93.8237 13.2812 93.4333 13.6172 93.4333 14.1107C93.4333 14.6042 93.7815 14.7617 94.4884 14.9087L96.5142 15.3182C98.4451 15.7277 99.2681 16.5047 99.2681 17.9642C99.2681 19.9592 97.4427 21.2402 94.7522 21.2402C92.0617 21.2402 90.2996 19.9592 90.1625 17.9957H93.2117C93.3067 18.7097 93.8765 19.1297 94.805 19.1297C95.7335 19.1297 96.1555 18.8252 96.1555 18.3212C96.1555 17.8172 95.8601 17.7122 95.1004 17.5547L93.275 17.1662C91.3864 16.7777 90.3946 15.7802 90.3946 14.3102C90.4157 12.4202 92.1144 11.1917 94.7311 11.1917V11.1707ZM109.83 21.0092H106.781V19.2137H106.717C106.55 19.8165 106.18 20.3441 105.669 20.709C105.159 21.0738 104.538 21.2538 103.911 21.2192C103.43 21.2464 102.949 21.1706 102.5 20.9968C102.051 20.8231 101.644 20.5554 101.308 20.212C100.972 19.8686 100.714 19.4574 100.552 19.0063C100.389 18.5551 100.325 18.0744 100.365 17.5967V11.3702H103.531V16.8722C103.531 18.0167 104.122 18.6257 105.103 18.6257C105.333 18.6262 105.561 18.5777 105.77 18.4835C105.98 18.3893 106.167 18.2516 106.319 18.0795C106.471 17.9075 106.584 17.7052 106.651 17.4861C106.718 17.267 106.737 17.0362 106.707 16.8092V11.3702H109.872L109.83 21.0092ZM111.36 11.3702H114.42V13.2287H114.483C114.651 12.6338 115.012 12.1112 115.511 11.7426C116.009 11.374 116.616 11.1803 117.237 11.1917C117.868 11.1414 118.496 11.3295 118.994 11.7186C119.493 12.1077 119.826 12.6693 119.927 13.2917H119.991C120.182 12.6627 120.578 12.1149 121.117 11.7347C121.656 11.3545 122.306 11.1635 122.966 11.1917C123.396 11.1773 123.825 11.2532 124.224 11.4144C124.623 11.5757 124.984 11.8187 125.282 12.1277C125.581 12.4366 125.811 12.8046 125.957 13.2078C126.103 13.6109 126.163 14.0402 126.131 14.4677V21.0302H122.966V15.3077C122.966 14.2577 122.491 13.7747 121.605 13.7747C121.407 13.773 121.212 13.8136 121.031 13.8936C120.85 13.9736 120.689 14.0912 120.558 14.2385C120.427 14.3858 120.329 14.5593 120.272 14.7474C120.214 14.9354 120.197 15.1337 120.223 15.3287V21.0302H117.216V15.2657C117.216 14.2997 116.741 13.7747 115.876 13.7747C115.676 13.7747 115.478 13.817 115.296 13.8986C115.114 13.9802 114.951 14.0994 114.818 14.2482C114.686 14.3971 114.586 14.5722 114.527 14.7621C114.467 14.9519 114.448 15.1522 114.472 15.3497V21.0302H111.307L111.36 11.3702Z" fill="#374151"/>
<path d="M28.259 8.87124C27.722 7.64942 27.0113 6.51078 26.1487 5.49025C24.8736 3.9366 23.2823 2.66931 21.4795 1.77178C19.6767 0.874257 17.7034 0.366844 15.6894 0.282941C13.6754 0.199037 11.6663 0.540544 9.79448 1.28499C7.92265 2.02943 6.23046 3.15993 4.82929 4.60208C3.42812 6.04423 2.34974 7.76533 1.66513 9.65211C0.980519 11.5389 0.705194 13.5486 0.857279 15.5489C1.00937 17.5491 1.58541 19.4947 2.54751 21.2575C3.5096 23.0203 4.83593 24.5603 6.43919 25.7762C7.46794 26.572 8.60466 27.2189 9.81556 27.6977C11.5133 28.3901 13.3302 28.7467 15.165 28.7477C18.9522 28.7394 22.5816 27.2371 25.2576 24.5701C27.9336 21.9032 29.4379 18.2891 29.4407 14.5202C29.4435 12.5762 29.0411 10.6527 28.259 8.87124ZM15.1544 3.16974C16.8021 3.16957 18.4298 3.52794 19.9236 4.21974C19.5593 4.37637 19.1763 4.48577 18.784 4.54525C17.4932 4.73119 16.2974 5.32758 15.3751 6.24537C14.4529 7.16317 13.8536 8.35317 13.6667 9.63774C13.5847 10.3582 13.2555 11.0284 12.7345 11.5353C12.2136 12.0422 11.533 12.3548 10.8074 12.4202C9.51653 12.6062 8.32074 13.2026 7.39847 14.1204C6.47621 15.0382 5.87692 16.2282 5.69006 17.5127C5.6268 18.1978 5.33311 18.8415 4.85652 19.3397C4.03422 17.6107 3.66483 15.7027 3.78271 13.7933C3.90058 11.884 4.5019 10.0354 5.53071 8.41948C6.55952 6.80358 7.98237 5.47294 9.66686 4.55139C11.3514 3.62983 13.2427 3.14732 15.165 3.14874L15.1544 3.16974ZM6.42864 21.8702C6.55526 21.7547 6.68187 21.6497 6.80849 21.5237C7.74717 20.6181 8.34971 19.4225 8.51777 18.1322C8.58591 17.4069 8.91133 16.7295 9.43572 16.2212C9.94032 15.6985 10.6195 15.3774 11.3455 15.3182C12.6363 15.1323 13.8321 14.5359 14.7544 13.6181C15.6766 12.7003 16.2759 11.5103 16.4628 10.2257C16.5084 9.46713 16.8356 8.75243 17.3807 8.22024C17.8978 7.70769 18.5835 7.3982 19.3116 7.34874C20.4974 7.18638 21.6034 6.66175 22.4769 5.84725C23.4715 6.66842 24.3142 7.65629 24.967 8.76624C24.9269 8.82016 24.8809 8.86947 24.8298 8.91324C24.3262 9.44055 23.6479 9.76875 22.9201 9.83725C21.6279 10.0199 20.4303 10.6153 19.5075 11.5337C18.5846 12.4521 17.9864 13.6439 17.8028 14.9297C17.7284 15.6526 17.4052 16.3276 16.888 16.8405C16.3707 17.3533 15.6912 17.6724 14.9645 17.7437C13.6699 17.9283 12.4697 18.5235 11.5421 19.4409C10.6144 20.3583 10.009 21.5491 9.81556 22.8362C9.75878 23.3494 9.58169 23.8421 9.29855 24.2747C8.216 23.6351 7.24645 22.8228 6.42864 21.8702ZM15.1544 25.9232C14.0838 25.9244 13.0183 25.776 11.9891 25.4822C12.3411 24.8291 12.57 24.1174 12.6644 23.3822C12.7383 22.661 13.06 21.9872 13.5751 21.4746C14.0903 20.9619 14.7673 20.6418 15.4921 20.5682C16.7848 20.3844 17.983 19.7889 18.9073 18.871C19.8317 17.953 20.4325 16.7618 20.6199 15.4757C20.6939 14.7545 21.0156 14.0807 21.5307 13.5681C22.0458 13.0554 22.7229 12.7353 23.4476 12.6617C24.4205 12.5358 25.3477 12.1754 26.1487 11.6117C26.5935 13.2895 26.6462 15.0464 26.3027 16.7477C25.9593 18.4489 25.2288 20.0492 24.1674 21.4258C23.1059 22.8025 21.7417 23.9189 20.1793 24.6894C18.617 25.4599 16.8981 25.864 15.1544 25.8707V25.9232Z" fill="#374151"/>
</g>
</svg>
