<svg width="138" height="31" viewBox="0 0 138 31" fill="none" xmlns="http://www.w3.org/2000/svg">
<g opacity="0.6">
<path d="M33.3346 7.29419H36.4999V22.6112H33.3346V7.29419Z" fill="#374151"/>
<path d="M38.2725 17.3642C38.2725 16.2622 38.5982 15.185 39.2083 14.2691C39.8184 13.3533 40.6854 12.6401 41.6994 12.2198C42.7135 11.7996 43.8289 11.6912 44.9042 11.9085C45.9796 12.1259 46.9666 12.659 47.74 13.4405C48.5134 14.222 49.0385 15.2165 49.2486 16.2981C49.4588 17.3797 49.3445 18.4996 48.9204 19.5159C48.4963 20.5322 47.7814 21.3992 46.8663 22.0068C45.9512 22.6145 44.8771 22.9355 43.7802 22.9292C43.0527 22.9349 42.3313 22.7946 41.6585 22.5166C40.9856 22.2385 40.3748 21.8283 39.8618 21.31C39.3488 20.7917 38.944 20.1757 38.6711 19.4981C38.3982 18.8205 38.2627 18.095 38.2725 17.3642ZM46.207 17.3642C46.1945 16.8891 46.0429 16.4282 45.7711 16.0392C45.4994 15.6503 45.1194 15.3504 44.6789 15.1772C44.2384 15.004 43.7568 14.9651 43.2944 15.0654C42.832 15.1657 42.4093 15.4008 42.0792 15.7412C41.749 16.0816 41.5261 16.5122 41.4383 16.9792C41.3505 17.4462 41.4017 17.9288 41.5855 18.3667C41.7693 18.8047 42.0775 19.1784 42.4716 19.4413C42.8657 19.7041 43.3283 19.8444 43.8013 19.8446C44.1234 19.8509 44.4433 19.7904 44.7411 19.6668C45.0388 19.5433 45.308 19.3594 45.5318 19.1266C45.7556 18.8938 45.9292 18.6171 46.0417 18.3139C46.1543 18.0106 46.2034 17.6873 46.1859 17.3642H46.207Z" fill="#374151"/>
<path d="M61.8121 12.1172V22.0918C61.8121 25.611 59.0689 27.1056 56.2939 27.1056C55.3151 27.1863 54.3333 26.9909 53.4591 26.5415C52.5848 26.092 51.8528 25.4063 51.3454 24.5616L54.0149 23.014C54.2312 23.4521 54.5753 23.8137 55.0013 24.0504C55.4273 24.2871 55.915 24.3878 56.3994 24.339C56.708 24.3772 57.0212 24.3464 57.3165 24.2488C57.6119 24.1513 57.8822 23.9893 58.108 23.7746C58.3338 23.5599 58.5096 23.2977 58.6228 23.0068C58.736 22.7159 58.7839 22.4034 58.7629 22.0918V21.1272C58.3945 21.5758 57.9271 21.9321 57.3978 22.1676C56.8685 22.4031 56.2918 22.5115 55.7136 22.484C54.3144 22.484 52.9726 21.9256 51.9832 20.9316C50.9938 19.9377 50.438 18.5896 50.438 17.184C50.438 15.7783 50.9938 14.4303 51.9832 13.4363C52.9726 12.4424 54.3144 11.884 55.7136 11.884C56.2918 11.8565 56.8685 11.9648 57.3978 12.2004C57.9271 12.4359 58.3945 12.7921 58.7629 13.2408V12.1808L61.8121 12.1172ZM58.7629 17.1522C58.7839 16.645 58.6535 16.1432 58.3883 15.7111C58.1232 15.279 57.7355 14.9365 57.275 14.7276C56.8145 14.5187 56.3024 14.453 55.8044 14.5388C55.3065 14.6247 54.8455 14.8582 54.4807 15.2094C54.1159 15.5606 53.8641 16.0134 53.7575 16.5096C53.6509 17.0057 53.6945 17.5226 53.8827 17.9936C54.0709 18.4647 54.395 18.8685 54.8134 19.153C55.2318 19.4375 55.7254 19.5897 56.2306 19.5902C56.5603 19.614 56.8913 19.5682 57.2022 19.4555C57.5131 19.3429 57.7971 19.166 58.0357 18.9362C58.2744 18.7065 58.4624 18.429 58.5876 18.1217C58.7129 17.8144 58.7726 17.4841 58.7629 17.1522Z" fill="#374151"/>
<path d="M63.5952 17.3642C63.5953 16.2631 63.9204 15.1867 64.5295 14.2713C65.1387 13.3559 66.0044 12.6427 67.0172 12.2218C68.03 11.8009 69.1443 11.6913 70.2192 11.9069C71.294 12.1225 72.281 12.6536 73.0552 13.4329C73.8295 14.2122 74.3562 15.2048 74.5688 16.285C74.7813 17.3652 74.6701 18.4845 74.2493 19.5012C73.8284 20.5178 73.1167 21.3862 72.2044 21.9965C71.2921 22.6067 70.2201 22.9313 69.124 22.9292C68.3951 22.9363 67.6721 22.7971 66.9975 22.5198C66.3228 22.2425 65.71 21.8327 65.1951 21.3144C64.6801 20.7961 64.2734 20.1797 63.9987 19.5014C63.7239 18.823 63.5868 18.0964 63.5952 17.3642ZM71.5297 17.3642C71.5172 16.8886 71.3654 16.4274 71.0931 16.0382C70.8208 15.649 70.4403 15.3491 69.9992 15.1763C69.558 15.0034 69.0759 14.9651 68.6132 15.0663C68.1506 15.1675 67.7279 15.4036 67.3982 15.745C67.0685 16.0864 66.8464 16.518 66.7598 16.9857C66.6732 17.4534 66.7259 17.9364 66.9113 18.3741C67.0967 18.8118 67.4066 19.1848 67.802 19.4464C68.1975 19.708 68.6611 19.8465 69.1346 19.8446C69.4567 19.8509 69.7766 19.7904 70.0744 19.6668C70.3721 19.5433 70.6413 19.3594 70.8651 19.1266C71.0889 18.8938 71.2625 18.6171 71.375 18.3139C71.4876 18.0106 71.5366 17.6873 71.5192 17.3642H71.5297Z" fill="#374151"/>
<path d="M76.1195 9.30814C76.1195 8.93496 76.2297 8.57017 76.436 8.25988C76.6424 7.9496 76.9357 7.70777 77.2789 7.56496C77.6221 7.42215 77.9997 7.38479 78.364 7.45759C78.7283 7.53039 79.063 7.71009 79.3256 7.97397C79.5883 8.23784 79.7672 8.57403 79.8396 8.94004C79.9121 9.30604 79.8749 9.68542 79.7327 10.0302C79.5906 10.375 79.3499 10.6696 79.041 10.877C78.7322 11.0843 78.3691 11.1949 77.9976 11.1949C77.5012 11.1894 77.0267 10.9889 76.6757 10.6362C76.3246 10.2836 76.125 9.80684 76.1195 9.30814ZM76.4255 12.1171H79.5908V22.6111H76.4255V12.1171Z" fill="#374151"/>
<path d="M93.1385 17.3642C93.1739 18.0621 93.0717 18.7602 92.8376 19.4182C92.6034 20.0763 92.2421 20.6813 91.7744 21.1986C91.3066 21.7158 90.7416 22.135 90.112 22.432C89.4823 22.729 88.8005 22.898 88.1056 22.9292C87.5159 22.9686 86.9249 22.8737 86.3768 22.6517C85.8288 22.4296 85.3377 22.086 84.9402 21.6466V26.83H81.7749V12.1172H84.9402V13.103C85.3382 12.6649 85.8296 12.3229 86.3778 12.1026C86.926 11.8824 87.5166 11.7895 88.1056 11.831C88.7977 11.8623 89.4769 12.0303 90.1043 12.3253C90.7318 12.6203 91.2953 13.0366 91.7627 13.5504C92.23 14.0642 92.5921 14.6655 92.8281 15.3199C93.0642 15.9742 93.1696 16.6689 93.1385 17.3642ZM89.9731 17.3642C89.9606 16.8719 89.8038 16.3942 89.5223 15.9911C89.2407 15.5879 88.847 15.2772 88.3904 15.0979C87.9339 14.9186 87.4348 14.8787 86.9557 14.9831C86.4767 15.0876 86.039 15.3318 85.6974 15.6851C85.3559 16.0384 85.1258 16.4851 85.036 16.9692C84.9461 17.4534 85.0005 17.9534 85.1923 18.4066C85.3841 18.8598 85.7047 19.2461 86.1141 19.517C86.5235 19.7879 87.0034 19.9313 87.4936 19.9294C87.8294 19.9437 88.1643 19.8866 88.4766 19.7617C88.7888 19.6368 89.0713 19.4471 89.3054 19.2049C89.5395 18.9627 89.72 18.6735 89.8351 18.3563C89.9502 18.039 89.9972 17.701 89.9731 17.3642Z" fill="#374151"/>
<path d="M102.772 19.463C102.772 21.8798 100.661 22.908 98.4246 22.908C97.5122 22.9905 96.5963 22.7962 95.795 22.3502C94.9937 21.9043 94.344 21.2272 93.9298 20.4064L96.652 18.8588C96.7598 19.237 96.9937 19.5666 97.3144 19.7923C97.6351 20.0181 98.0233 20.1263 98.414 20.099C99.1631 20.099 99.543 19.8658 99.543 19.4418C99.543 18.2864 94.4046 18.9012 94.4046 15.2654C94.4046 12.9758 96.3249 11.831 98.4984 11.831C99.3246 11.7938 100.145 11.9821 100.874 12.3759C101.602 12.7697 102.21 13.3543 102.634 14.0676L99.9123 15.5092C99.792 15.2357 99.5955 15.0031 99.3465 14.8394C99.0974 14.6758 98.8065 14.5881 98.509 14.587C97.9603 14.587 97.6332 14.799 97.6332 15.17C97.6332 16.3784 102.772 15.5834 102.772 19.463Z" fill="#374151"/>
<path d="M114.241 12.1172V22.6112H111.075V21.6254C110.716 22.0618 110.259 22.4071 109.742 22.6336C109.225 22.8601 108.663 22.9613 108.1 22.9292C105.99 22.9292 104.185 21.4134 104.185 18.5832V12.1172H107.351V18.1062C107.326 18.3566 107.355 18.6094 107.437 18.8472C107.519 19.085 107.651 19.3021 107.825 19.4836C107.999 19.665 108.209 19.8064 108.443 19.898C108.676 19.9896 108.926 20.0293 109.176 20.0142C110.316 20.0142 111.118 19.3358 111.118 17.8942V12.1172H114.241Z" fill="#374151"/>
<path d="M132.178 16.1664V22.6112H129.012V16.442C129.012 15.382 128.516 14.7248 127.514 14.7248C126.512 14.7248 125.879 15.4562 125.879 16.6964V22.6112H122.713V16.442C122.713 15.382 122.217 14.7248 121.215 14.7248C120.213 14.7248 119.58 15.4562 119.58 16.6964V22.6112H116.414V12.1172H119.58V13.0818C119.907 12.6556 120.335 12.3181 120.825 12.0997C121.315 11.8814 121.852 11.789 122.386 11.831C122.921 11.8029 123.455 11.9152 123.934 12.1568C124.413 12.3984 124.821 12.761 125.119 13.209C125.467 12.7409 125.927 12.369 126.456 12.128C126.986 11.8871 127.567 11.7849 128.147 11.831C130.616 11.831 132.178 13.5482 132.178 16.1664Z" fill="#374151"/>
<path d="M14.4797 4.5382V0.0332031H0.341187V30.9852H14.4797V26.4802C11.5834 26.4802 8.80578 25.3243 6.7578 23.2669C4.70983 21.2094 3.55928 18.4189 3.55928 15.5092C3.55928 12.5995 4.70983 9.80899 6.7578 7.75153C8.80578 5.69407 11.5834 4.5382 14.4797 4.5382Z" fill="#374151"/>
<path d="M14.4797 4.5382V26.4802C17.376 26.4802 20.1536 25.3243 22.2015 23.2669C24.2495 21.2094 25.4001 18.4189 25.4001 15.5092C25.4001 12.5995 24.2495 9.809 22.2015 7.75154C20.1536 5.69407 17.376 4.5382 14.4797 4.5382Z" fill="#374151"/>
<path d="M134.837 12.0536C136.119 12.0536 137.158 11.0095 137.158 9.72157C137.158 8.43365 136.119 7.38957 134.837 7.38957C133.555 7.38957 132.515 8.43365 132.515 9.72157C132.515 11.0095 133.555 12.0536 134.837 12.0536Z" fill="#374151"/>
</g>
</svg>
