<svg width="137" height="31" viewBox="0 0 137 31" fill="none" xmlns="http://www.w3.org/2000/svg">
<g opacity="0.6">
<path d="M32.9934 7.29419H36.1587V22.6112H32.9934V7.29419Z" fill="#374151"/>
<path d="M37.9313 17.3642C37.9314 16.2622 38.257 15.185 38.8671 14.2691C39.4772 13.3533 40.3442 12.6401 41.3582 12.2198C42.3723 11.7996 43.4877 11.6912 44.5631 11.9085C45.6384 12.1259 46.6254 12.659 47.3988 13.4405C48.1722 14.222 48.6973 15.2165 48.9074 16.2981C49.1176 17.3797 49.0034 18.4996 48.5792 19.5159C48.1551 20.5322 47.4402 21.3992 46.5251 22.0068C45.61 22.6145 44.5359 22.9355 43.439 22.9292C42.7115 22.9349 41.9901 22.7946 41.3173 22.5166C40.6444 22.2385 40.0336 21.8283 39.5206 21.31C39.0076 20.7917 38.6028 20.1757 38.3299 19.4981C38.057 18.8205 37.9215 18.095 37.9313 17.3642ZM45.8658 17.3642C45.8533 16.8891 45.7017 16.4282 45.43 16.0392C45.1582 15.6503 44.7783 15.3504 44.3377 15.1772C43.8972 15.004 43.4156 14.9651 42.9532 15.0654C42.4908 15.1657 42.0681 15.4008 41.738 15.7412C41.4078 16.0816 41.1849 16.5122 41.0971 16.9792C41.0093 17.4462 41.0605 17.9288 41.2443 18.3667C41.4281 18.8047 41.7363 19.1784 42.1304 19.4413C42.5246 19.7041 42.9871 19.8444 43.4601 19.8446C43.7822 19.8509 44.1021 19.7904 44.3999 19.6668C44.6976 19.5433 44.9668 19.3594 45.1906 19.1266C45.4144 18.8938 45.588 18.6171 45.7006 18.3139C45.8131 18.0106 45.8622 17.6873 45.8447 17.3642H45.8658Z" fill="#374151"/>
<path d="M61.471 12.1172V22.0918C61.471 25.611 58.7277 27.1056 55.9527 27.1056C54.9739 27.1863 53.9922 26.9909 53.1179 26.5415C52.2436 26.092 51.5116 25.4063 51.0042 24.5616L53.6737 23.014C53.89 23.4521 54.2341 23.8137 54.6601 24.0504C55.0861 24.2871 55.5738 24.3878 56.0582 24.339C56.3668 24.3772 56.68 24.3464 56.9754 24.2488C57.2707 24.1513 57.541 23.9893 57.7668 23.7746C57.9926 23.5599 58.1684 23.2977 58.2816 23.0068C58.3948 22.7159 58.4427 22.4034 58.4217 22.0918V21.1272C58.0533 21.5758 57.586 21.9321 57.0566 22.1676C56.5273 22.4031 55.9507 22.5115 55.3724 22.484C53.9732 22.484 52.6314 21.9256 51.642 20.9316C50.6527 19.9377 50.0968 18.5896 50.0968 17.184C50.0968 15.7783 50.6527 14.4303 51.642 13.4363C52.6314 12.4424 53.9732 11.884 55.3724 11.884C55.9507 11.8565 56.5273 11.9648 57.0566 12.2004C57.586 12.4359 58.0533 12.7921 58.4217 13.2408V12.1808L61.471 12.1172ZM58.4217 17.1522C58.4427 16.645 58.3123 16.1432 58.0472 15.7111C57.782 15.279 57.3943 14.9365 56.9338 14.7276C56.4733 14.5187 55.9612 14.453 55.4633 14.5388C54.9653 14.6247 54.5043 14.8582 54.1395 15.2094C53.7747 15.5606 53.5229 16.0134 53.4163 16.5096C53.3097 17.0057 53.3533 17.5226 53.5415 17.9936C53.7297 18.4647 54.0538 18.8685 54.4722 19.153C54.8906 19.4375 55.3842 19.5897 55.8894 19.5902C56.2191 19.614 56.5501 19.5682 56.861 19.4555C57.1719 19.3429 57.4559 19.166 57.6945 18.9362C57.9332 18.7065 58.1212 18.429 58.2464 18.1217C58.3717 17.8144 58.4314 17.4841 58.4217 17.1522Z" fill="#374151"/>
<path d="M63.2541 17.3642C63.2541 16.2631 63.5792 15.1867 64.1883 14.2713C64.7975 13.3559 65.6632 12.6427 66.676 12.2218C67.6888 11.8009 68.8032 11.6913 69.878 11.9069C70.9528 12.1225 71.9398 12.6536 72.7141 13.4329C73.4883 14.2122 74.0151 15.2048 74.2276 16.285C74.4401 17.3652 74.3289 18.4845 73.9081 19.5012C73.4872 20.5178 72.7756 21.3862 71.8632 21.9965C70.9509 22.6067 69.8789 22.9313 68.7829 22.9292C68.0539 22.9363 67.331 22.7971 66.6563 22.5198C65.9816 22.2425 65.3688 21.8327 64.8539 21.3144C64.3389 20.7961 63.9322 20.1797 63.6575 19.5014C63.3828 18.823 63.2456 18.0964 63.2541 17.3642ZM71.1885 17.3642C71.1761 16.8886 71.0242 16.4274 70.7519 16.0382C70.4796 15.649 70.0991 15.3491 69.658 15.1763C69.2168 15.0034 68.7347 14.9651 68.272 15.0663C67.8094 15.1675 67.3867 15.4036 67.057 15.745C66.7273 16.0864 66.5052 16.518 66.4186 16.9857C66.332 17.4534 66.3847 17.9364 66.5701 18.3741C66.7555 18.8118 67.0654 19.1848 67.4609 19.4464C67.8564 19.708 68.3199 19.8465 68.7934 19.8446C69.1155 19.8509 69.4354 19.7904 69.7332 19.6668C70.0309 19.5433 70.3001 19.3594 70.5239 19.1266C70.7477 18.8938 70.9213 18.6171 71.0338 18.3139C71.1464 18.0106 71.1954 17.6873 71.178 17.3642H71.1885Z" fill="#374151"/>
<path d="M75.7783 9.30814C75.7783 8.93496 75.8885 8.57017 76.0948 8.25988C76.3012 7.9496 76.5945 7.70777 76.9377 7.56496C77.2809 7.42215 77.6585 7.38479 78.0228 7.45759C78.3871 7.53039 78.7218 7.71009 78.9844 7.97397C79.2471 8.23784 79.426 8.57403 79.4984 8.94004C79.5709 9.30604 79.5337 9.68542 79.3916 10.0302C79.2494 10.375 79.0087 10.6696 78.6998 10.877C78.391 11.0843 78.0279 11.1949 77.6564 11.1949C77.16 11.1894 76.6855 10.9889 76.3345 10.6362C75.9834 10.2836 75.7838 9.80684 75.7783 9.30814ZM76.0843 12.1171H79.2496V22.6111H76.0843V12.1171Z" fill="#374151"/>
<path d="M92.7973 17.3642C92.8327 18.0621 92.7305 18.7602 92.4964 19.4182C92.2623 20.0763 91.9009 20.6813 91.4332 21.1986C90.9654 21.7158 90.4004 22.135 89.7708 22.432C89.1412 22.729 88.4593 22.898 87.7644 22.9292C87.1747 22.9686 86.5837 22.8737 86.0357 22.6517C85.4876 22.4296 84.9965 22.086 84.599 21.6466V26.83H81.4337V12.1172H84.599V13.103C84.997 12.6649 85.4885 12.3229 86.0366 12.1026C86.5848 11.8824 87.1754 11.7895 87.7644 11.831C88.4565 11.8623 89.1357 12.0303 89.7632 12.3253C90.3907 12.6203 90.9542 13.0366 91.4215 13.5504C91.8889 14.0642 92.2509 14.6655 92.4869 15.3199C92.723 15.9742 92.8284 16.6689 92.7973 17.3642ZM89.6319 17.3642C89.6194 16.8719 89.4626 16.3942 89.1811 15.9911C88.8995 15.5879 88.5058 15.2772 88.0492 15.0979C87.5927 14.9186 87.0936 14.8787 86.6145 14.9831C86.1355 15.0876 85.6978 15.3318 85.3563 15.6851C85.0148 16.0384 84.7846 16.4851 84.6948 16.9692C84.6049 17.4534 84.6593 17.9534 84.8511 18.4066C85.0429 18.8598 85.3636 19.2461 85.7729 19.517C86.1823 19.7879 86.6622 19.9313 87.1524 19.9294C87.4882 19.9437 87.8231 19.8866 88.1354 19.7617C88.4476 19.6368 88.7301 19.4471 88.9642 19.2049C89.1983 18.9627 89.3788 18.6735 89.4939 18.3563C89.609 18.039 89.656 17.701 89.6319 17.3642Z" fill="#374151"/>
<path d="M102.43 19.463C102.43 21.8798 100.32 22.908 98.0834 22.908C97.171 22.9905 96.2551 22.7962 95.4538 22.3502C94.6525 21.9043 94.0028 21.2272 93.5886 20.4064L96.3108 18.8588C96.4186 19.237 96.6525 19.5666 96.9732 19.7923C97.294 20.0181 97.6821 20.1263 98.0728 20.099C98.8219 20.099 99.2018 19.8658 99.2018 19.4418C99.2018 18.2864 94.0634 18.9012 94.0634 15.2654C94.0634 12.9758 95.9837 11.831 98.1572 11.831C98.9834 11.7938 99.8042 11.9821 100.532 12.3759C101.261 12.7697 101.869 13.3543 102.293 14.0676L99.5711 15.5092C99.4508 15.2357 99.2543 15.0031 99.0053 14.8394C98.7562 14.6758 98.4654 14.5881 98.1678 14.587C97.6191 14.587 97.292 14.799 97.292 15.17C97.292 16.3784 102.43 15.5834 102.43 19.463Z" fill="#374151"/>
<path d="M113.899 12.1172V22.6112H110.734V21.6254C110.375 22.0618 109.918 22.4071 109.401 22.6336C108.884 22.8601 108.322 22.9613 107.759 22.9292C105.648 22.9292 103.844 21.4134 103.844 18.5832V12.1172H107.01V18.1062C106.985 18.3566 107.014 18.6094 107.096 18.8472C107.178 19.085 107.31 19.3021 107.484 19.4836C107.657 19.665 107.868 19.8064 108.101 19.898C108.335 19.9896 108.585 20.0293 108.835 20.0142C109.974 20.0142 110.776 19.3358 110.776 17.8942V12.1172H113.899Z" fill="#374151"/>
<path d="M131.836 16.1664V22.6112H128.671V16.442C128.671 15.382 128.175 14.7248 127.173 14.7248C126.17 14.7248 125.537 15.4562 125.537 16.6964V22.6112H122.372V16.442C122.372 15.382 121.876 14.7248 120.874 14.7248C119.871 14.7248 119.238 15.4562 119.238 16.6964V22.6112H116.073V12.1172H119.238V13.0818C119.566 12.6556 119.994 12.3181 120.484 12.0997C120.974 11.8814 121.511 11.789 122.045 11.831C122.58 11.8029 123.114 11.9152 123.593 12.1568C124.072 12.3984 124.48 12.761 124.778 13.209C125.125 12.7409 125.585 12.369 126.115 12.128C126.645 11.8871 127.226 11.7849 127.806 11.831C130.275 11.831 131.836 13.5482 131.836 16.1664Z" fill="#374151"/>
<path d="M14.1385 4.5382V0.0332031H0V30.9852H14.1385V26.4802C11.2422 26.4802 8.46459 25.3243 6.41662 23.2669C4.36864 21.2094 3.2181 18.4189 3.2181 15.5092C3.2181 12.5995 4.36864 9.80899 6.41662 7.75153C8.46459 5.69407 11.2422 4.5382 14.1385 4.5382Z" fill="#374151"/>
<path d="M14.1385 4.5382V26.4802C17.0348 26.4802 19.8124 25.3243 21.8604 23.2669C23.9083 21.2094 25.0589 18.4189 25.0589 15.5092C25.0589 12.5995 23.9083 9.809 21.8604 7.75154C19.8124 5.69407 17.0348 4.5382 14.1385 4.5382Z" fill="#374151"/>
<path d="M134.495 12.0536C135.777 12.0536 136.817 11.0095 136.817 9.72157C136.817 8.43365 135.777 7.38957 134.495 7.38957C133.213 7.38957 132.174 8.43365 132.174 9.72157C132.174 11.0095 133.213 12.0536 134.495 12.0536Z" fill="#374151"/>
</g>
</svg>
