<svg width="131" height="29" viewBox="0 0 131 29" fill="none" xmlns="http://www.w3.org/2000/svg">
<g opacity="0.6">
<path d="M20.3185 12.7969C19.9553 13.1973 19.6772 13.6805 19.5039 14.212C19.3306 14.7436 19.2665 15.3105 19.316 15.8724L19.2988 15.8535C19.3497 16.5148 19.2684 17.1804 19.0603 17.8037C18.8522 18.427 18.5225 18.9931 18.0942 19.4624C17.6658 19.9317 17.1491 20.2929 16.5802 20.5209C16.0113 20.7488 15.4038 20.838 14.8002 20.7822L14.8174 20.8011C14.0954 20.7274 13.3701 20.8996 12.7406 21.2941C12.1112 21.6885 11.608 22.2861 11.2999 23.0053C10.9917 23.7246 10.8936 24.5304 11.0187 25.313C11.1439 26.0956 11.4864 26.8168 11.9994 27.3784C12.5124 27.9399 13.171 28.3144 13.8854 28.4509C14.5998 28.5873 15.3353 28.479 15.9914 28.1408C16.6476 27.8025 17.1926 27.2508 17.5521 26.5607C17.9116 25.8707 18.068 25.076 18.0002 24.285L18.0184 24.3039C17.9674 23.6425 18.0488 22.977 18.2569 22.3537C18.4649 21.7303 18.7947 21.1643 19.223 20.695C19.6514 20.2257 20.168 19.8644 20.737 19.6365C21.3059 19.4085 21.9134 19.3194 22.517 19.3752L22.4988 19.3563C23.0886 19.4144 23.6823 19.3084 24.2248 19.0482C24.7673 18.788 25.2411 18.382 25.6023 17.8678C25.9634 17.3536 26.2002 16.7478 26.2908 16.1066C26.3813 15.4654 26.3227 14.8095 26.1203 14.1998C25.9178 13.59 25.5782 13.0461 25.1329 12.6185C24.6875 12.1908 24.1508 11.8932 23.5725 11.7533C22.9942 11.6134 22.3931 11.6357 21.8247 11.8182C21.2564 12.0006 20.7393 12.3372 20.3214 12.7969H20.3185Z" fill="#374151"/>
<path d="M13.2485 18.3251L13.2303 18.3062C13.7434 18.3629 14.2615 18.2939 14.7472 18.1043C15.2329 17.9146 15.6741 17.6091 16.0389 17.2098C16.4036 16.8105 16.6828 16.3273 16.8563 15.7953C17.0297 15.2633 17.0931 14.6957 17.0418 14.1335L17.06 14.1524C17.009 13.4911 17.0904 12.8255 17.2985 12.2022C17.5065 11.5789 17.8363 11.0128 18.2646 10.5435C18.693 10.0742 19.2096 9.71297 19.7786 9.48502C20.3475 9.25707 20.955 9.1679 21.5586 9.22372L21.5404 9.20483C22.2625 9.27912 22.988 9.10756 23.6178 8.71353C24.2477 8.31951 24.7513 7.7222 25.0599 7.00309C25.3685 6.28398 25.4671 5.47807 25.3423 4.69529C25.2175 3.9125 24.8753 3.19096 24.3625 2.62907C23.8496 2.06717 23.191 1.69229 22.4765 1.55555C21.7621 1.41881 21.0265 1.52687 20.3701 1.86499C19.7138 2.20311 19.1686 2.75482 18.8089 3.44489C18.4493 4.13496 18.2927 4.92977 18.3605 5.72093L18.3433 5.70097C18.3944 6.36236 18.3131 7.028 18.1051 7.65141C17.8971 8.27482 17.5674 8.84096 17.139 9.31031C16.7106 9.77965 16.1939 10.1409 15.6249 10.3688C15.0559 10.5966 14.4483 10.6857 13.8446 10.6297L13.8619 10.6496C13.3488 10.593 12.8307 10.662 12.345 10.8516C11.8593 11.0412 11.4181 11.3468 11.0533 11.7461C10.6885 12.1454 10.4094 12.6285 10.2359 13.1606C10.0625 13.6926 9.99911 14.2602 10.0504 14.8223L10.0332 14.8034C10.084 15.4647 10.0024 16.1302 9.79432 16.7534C9.58621 17.3767 9.25649 17.9427 8.82817 18.4119C8.39986 18.8812 7.88326 19.2424 7.3144 19.4705C6.74555 19.6985 6.13814 19.7878 5.53454 19.7321L5.55179 19.751C4.82967 19.6767 4.10421 19.8483 3.47436 20.2423C2.84451 20.6364 2.34093 21.2337 2.03232 21.9528C1.7237 22.6719 1.62507 23.4778 1.74988 24.2606C1.87469 25.0434 2.21686 25.7649 2.72973 26.3268C3.24259 26.8887 3.90117 27.2636 4.61565 27.4003C5.33013 27.537 6.06571 27.429 6.72207 27.0909C7.37844 26.7528 7.92362 26.201 8.28326 25.511C8.64291 24.8209 8.7995 24.0261 8.73169 23.2349L8.7499 23.2538C8.69894 22.5925 8.78033 21.9269 8.98839 21.3036C9.19645 20.6803 9.52616 20.1142 9.95451 19.6449C10.3829 19.1756 10.8995 18.8144 11.4685 18.5864C12.0374 18.3585 12.6449 18.2693 13.2485 18.3251Z" fill="#374151"/>
<path d="M6.82552 16.2178C7.18876 15.8175 7.46687 15.3343 7.63999 14.8027C7.81311 14.2711 7.87698 13.7041 7.82702 13.1424L7.84523 13.1613C7.79424 12.4997 7.87567 11.834 8.08384 11.2105C8.292 10.587 8.62189 10.0208 9.05046 9.55147C9.47903 9.08213 9.99595 8.72095 10.5651 8.49314C11.1343 8.26534 11.742 8.17641 12.3458 8.23256L12.3276 8.21366C13.0494 8.28775 13.7746 8.11609 14.4042 7.72209C15.0337 7.32809 15.537 6.73093 15.8455 6.01205C16.1539 5.29316 16.2524 4.48754 16.1276 3.70505C16.0028 2.92256 15.6607 2.2013 15.1481 1.63961C14.6354 1.07792 13.9771 0.703157 13.2629 0.566422C12.5486 0.429687 11.8133 0.537638 11.1572 0.875553C10.501 1.21347 9.95596 1.7649 9.59634 2.45464C9.23672 3.14439 9.08004 3.93888 9.14767 4.72976L9.13041 4.71086C9.18137 5.3722 9.09998 6.03776 8.89192 6.66109C8.68386 7.28441 8.35415 7.85048 7.9258 8.31978C7.49745 8.78908 6.98077 9.15031 6.41184 9.37826C5.84291 9.60621 5.23543 9.69538 4.63179 9.63956L4.64904 9.65846C4.05923 9.60051 3.46561 9.70661 2.92318 9.96692C2.38076 10.2272 1.90708 10.6333 1.54605 11.1476C1.18502 11.6619 0.948316 12.2677 0.857869 12.9089C0.767422 13.5501 0.82616 14.2059 1.02864 14.8156C1.23112 15.4253 1.57079 15.9691 2.01618 16.3967C2.46157 16.8242 2.99826 17.1217 3.57652 17.2616C4.15479 17.4014 4.75591 17.379 5.32419 17.1966C5.89247 17.0141 6.40952 16.6775 6.82743 16.2178H6.82552Z" fill="#374151"/>
<path d="M36.5131 5.74508H39.3595V20.9207H36.5131V5.74508Z" fill="#374151"/>
<path d="M40.9715 15.7243C40.9676 14.6337 41.2591 13.5664 41.8092 12.6575C42.3593 11.7486 43.1433 11.039 44.0618 10.6186C44.9803 10.1983 45.992 10.086 46.9688 10.2961C47.9456 10.5062 48.8435 11.0291 49.5487 11.7987C50.254 12.5684 50.7349 13.55 50.9306 14.6193C51.1263 15.6886 51.0279 16.7975 50.6479 17.8055C50.2679 18.8134 49.6234 19.6752 48.796 20.2815C47.9686 20.8879 46.9956 21.2116 46.0002 21.2116C45.3394 21.2198 44.6838 21.0837 44.0716 20.8111C43.4594 20.5386 42.9029 20.1351 42.4347 19.6242C41.9665 19.1133 41.596 18.5052 41.3448 17.8356C41.0935 17.166 40.9667 16.4483 40.9715 15.7243ZM48.1824 15.7243C48.1705 15.2542 48.0324 14.7984 47.7854 14.4138C47.5383 14.0293 47.1933 13.733 46.7934 13.5621C46.3936 13.3912 45.9566 13.3532 45.5371 13.4529C45.1176 13.5526 44.7343 13.7856 44.435 14.1227C44.1358 14.4598 43.9338 14.8861 43.8545 15.3483C43.7751 15.8104 43.8219 16.2879 43.9889 16.7211C44.1559 17.1543 44.4358 17.524 44.7935 17.7839C45.1512 18.0438 45.5709 18.1824 46.0002 18.1823C46.2941 18.1909 46.5865 18.1327 46.8589 18.0113C47.1313 17.89 47.3778 17.7081 47.5828 17.4771C47.7878 17.2462 47.947 16.9712 48.0501 16.6695C48.1533 16.3678 48.1984 16.046 48.1824 15.7243Z" fill="#374151"/>
<path d="M62.373 10.5268V20.3968C62.373 23.8891 59.887 25.3654 57.3636 25.3654C56.4751 25.4383 55.5855 25.2416 54.7923 24.7971C53.9991 24.3526 53.3329 23.6773 52.8669 22.8454L55.2954 21.3072C55.4913 21.7408 55.8034 22.0986 56.19 22.3326C56.5765 22.5666 57.0191 22.6656 57.4585 22.6165C57.7393 22.6591 58.0252 22.632 58.2952 22.5372C58.5651 22.4424 58.8122 22.2823 59.018 22.0688C59.2239 21.8553 59.3833 21.5938 59.4844 21.3036C59.5856 21.0135 59.6259 20.7021 59.6024 20.3926V19.4424C59.2691 19.8892 58.8448 20.2442 58.3636 20.4788C57.8825 20.7135 57.3578 20.8214 56.8317 20.7937C55.5799 20.7504 54.3925 20.1752 53.521 19.1898C52.6494 18.2043 52.1621 16.886 52.1621 15.5138C52.1621 14.1416 52.6494 12.8232 53.521 11.8378C54.3925 10.8523 55.5799 10.2771 56.8317 10.2339C57.3578 10.2062 57.8825 10.314 58.3636 10.5487C58.8448 10.7834 59.2691 11.1384 59.6024 11.5852V10.5247L62.373 10.5268ZM59.6033 15.5154C59.6224 15.0128 59.5039 14.5154 59.2628 14.0873C59.0218 13.6592 58.6693 13.3199 58.2508 13.1131C57.8322 12.9064 57.3668 12.8415 56.9143 12.927C56.4619 13.0125 56.0432 13.2443 55.712 13.5928C55.3809 13.9412 55.1525 14.3902 55.0562 14.882C54.96 15.3739 55.0002 15.886 55.1719 16.3525C55.3436 16.8191 55.6387 17.2186 56.0194 17.4998C56.4001 17.781 56.8489 17.931 57.308 17.9303C57.6071 17.9532 57.9072 17.9072 58.189 17.7953C58.4709 17.6833 58.7282 17.508 58.9444 17.2805C59.1607 17.053 59.331 16.7784 59.4445 16.4744C59.558 16.1703 59.6121 15.8437 59.6033 15.5154Z" fill="#374151"/>
<path d="M63.985 15.7243C63.981 14.6337 64.2725 13.5664 64.8227 12.6575C65.3728 11.7486 66.1567 11.039 67.0752 10.6186C67.9937 10.1983 69.0055 10.086 69.9822 10.2961C70.959 10.5062 71.8569 11.0291 72.5622 11.7987C73.2675 12.5684 73.7484 13.55 73.9441 14.6193C74.1397 15.6886 74.0413 16.7975 73.6613 17.8055C73.2813 18.8134 72.6368 19.6752 71.8094 20.2815C70.982 20.8879 70.009 21.2116 69.0136 21.2116C68.3528 21.2198 67.6972 21.0837 67.085 20.8111C66.4728 20.5386 65.9164 20.1351 65.4482 19.6242C64.98 19.1133 64.6095 18.5052 64.3582 17.8356C64.107 17.166 63.9801 16.4483 63.985 15.7243ZM71.1958 15.7243C71.1839 15.2542 71.0459 14.7984 70.7988 14.4138C70.5518 14.0293 70.2068 13.733 69.8069 13.5621C69.407 13.3912 68.97 13.3532 68.5506 13.4529C68.1311 13.5526 67.7478 13.7856 67.4485 14.1227C67.1492 14.4598 66.9473 14.8861 66.8679 15.3483C66.7886 15.8104 66.8353 16.2879 67.0023 16.7211C67.1693 17.1543 67.4492 17.524 67.8069 17.7839C68.1647 18.0438 68.5844 18.1824 69.0136 18.1823C69.3075 18.1909 69.5999 18.1327 69.8723 18.0113C70.1447 17.89 70.3912 17.7081 70.5962 17.4771C70.8013 17.2462 70.9604 16.9712 71.0636 16.6695C71.1668 16.3678 71.2118 16.046 71.1958 15.7243Z" fill="#374151"/>
<path d="M75.3696 7.74114C75.3696 7.37107 75.4697 7.00931 75.6574 6.70161C75.845 6.39391 76.1118 6.15408 76.4238 6.01246C76.7359 5.87084 77.0793 5.83379 77.4106 5.90599C77.7419 5.97818 78.0462 6.15639 78.285 6.41807C78.5238 6.67975 78.6865 7.01314 78.7524 7.3761C78.8183 7.73906 78.7845 8.11527 78.6552 8.45717C78.5259 8.79907 78.307 9.0913 78.0262 9.2969C77.7453 9.5025 77.4152 9.61224 77.0774 9.61224C76.6258 9.60731 76.194 9.4086 75.8747 9.05876C75.5554 8.70892 75.3741 8.23586 75.3696 7.74114ZM75.6571 10.5268H78.5044V20.9218H75.6532L75.6571 10.5268Z" fill="#374151"/>
<path d="M90.7947 15.7243C90.8276 16.4113 90.7362 17.0986 90.5258 17.7468C90.3154 18.3949 89.9901 18.9911 89.5686 19.5011C89.1472 20.0111 88.6379 20.4247 88.07 20.7182C87.5021 21.0118 86.8869 21.1794 86.2597 21.2116C85.7322 21.2431 85.2049 21.1456 84.7161 20.9263C84.2272 20.7069 83.7891 20.3711 83.4334 19.9432V25.0787H80.587V10.5268H83.4334V11.5033C83.7893 11.0757 84.2275 10.7402 84.7163 10.521C85.2051 10.3018 85.7323 10.2044 86.2597 10.2359C86.887 10.2679 87.5024 10.4355 88.0704 10.7291C88.6384 11.0226 89.1478 11.4364 89.5693 11.9465C89.9908 12.4566 90.316 13.053 90.5263 13.7013C90.7366 14.3496 90.8279 15.0372 90.7947 15.7243ZM87.9483 15.7243C87.9372 15.2378 87.7953 14.7657 87.5405 14.3671C87.2857 13.9685 86.9293 13.6611 86.5158 13.4833C86.1023 13.3056 85.6501 13.2654 85.2159 13.3678C84.7816 13.4703 84.3846 13.7107 84.0745 14.0591C83.7644 14.4075 83.555 14.8484 83.4725 15.3266C83.3899 15.8048 83.438 16.299 83.6105 16.7474C83.7831 17.1958 84.0726 17.5785 84.4427 17.8475C84.8128 18.1166 85.2471 18.2601 85.6913 18.26C85.9963 18.2749 86.3006 18.219 86.5845 18.0959C86.8683 17.9729 87.1252 17.7855 87.3383 17.5461C87.5514 17.3067 87.7159 17.0206 87.8211 16.7066C87.9262 16.3927 87.9696 16.0579 87.9483 15.7243Z" fill="#374151"/>
<path d="M99.5782 17.8023C99.5782 20.1931 97.6816 21.2116 95.6326 21.2116C94.8047 21.2938 93.9733 21.1019 93.246 20.6609C92.5187 20.2199 91.9288 19.55 91.5527 18.7378L94.0186 17.1996C94.1184 17.575 94.3327 17.9016 94.6257 18.1248C94.9187 18.348 95.2728 18.4543 95.6287 18.426C96.3111 18.426 96.6532 18.1971 96.6532 17.7823C96.6532 16.6378 91.985 17.2416 91.985 13.6453C91.985 11.3784 93.7311 10.236 95.7044 10.236C96.4462 10.2102 97.1808 10.403 97.8314 10.7942C98.4821 11.1853 99.0251 11.7605 99.4038 12.4599L96.9752 13.8942C96.8687 13.6219 96.6915 13.39 96.4655 13.2273C96.2395 13.0647 95.9748 12.9785 95.7044 12.9796C95.2109 12.9796 94.9071 13.1896 94.9071 13.5613C94.9109 14.7468 99.5782 13.9561 99.5782 17.8023Z" fill="#374151"/>
<path d="M109.976 10.5268V20.9218H107.129V19.9443C106.801 20.3756 106.384 20.7155 105.912 20.936C105.441 21.1565 104.928 21.2513 104.417 21.2127C102.5 21.2127 100.871 19.7164 100.871 16.9077V10.5268H103.717V16.4509C103.694 16.6985 103.719 16.9488 103.793 17.1844C103.866 17.4199 103.986 17.6352 104.143 17.815C104.3 17.9949 104.491 18.1352 104.702 18.226C104.914 18.3168 105.141 18.356 105.368 18.3409C106.411 18.3409 107.132 17.6763 107.132 16.2V10.53L109.976 10.5268Z" fill="#374151"/>
<path d="M126.297 14.5389V20.9208H123.451V14.8087C123.451 13.7692 122.995 13.1046 122.085 13.1046C121.136 13.1046 120.604 13.8323 120.604 15.0587V20.9208H117.759V14.8087C117.759 13.7692 117.303 13.1046 116.392 13.1046C115.443 13.1046 114.912 13.8323 114.912 15.0587V20.9208H112.066V10.5258H114.912V11.4813C115.207 11.0574 115.595 10.7212 116.039 10.5035C116.483 10.2858 116.97 10.1935 117.455 10.2349C117.942 10.2088 118.427 10.3214 118.862 10.5618C119.298 10.8021 119.669 11.1619 119.94 11.6062C120.255 11.1414 120.673 10.7718 121.154 10.532C121.636 10.2922 122.164 10.19 122.691 10.2349C124.87 10.236 126.297 11.9401 126.297 14.5389Z" fill="#374151"/>
<path d="M128.704 10.4628C129.871 10.4628 130.817 9.42667 130.817 8.14857C130.817 6.87048 129.871 5.83438 128.704 5.83438C127.538 5.83438 126.592 6.87048 126.592 8.14857C126.592 9.42667 127.538 10.4628 128.704 10.4628Z" fill="#374151"/>
</g>
</svg>
