<svg width="124" height="25" viewBox="0 0 124 25" fill="none" xmlns="http://www.w3.org/2000/svg">
<g opacity="0.6">
<path d="M39.8409 20.2023C39.2167 20.2359 38.5992 20.06 38.0883 19.7031C37.8747 19.5463 37.703 19.3403 37.5878 19.1029C37.4726 18.8655 37.4174 18.604 37.4271 18.3407V8.69994C37.422 8.65912 37.4263 8.61769 37.4398 8.57879C37.4533 8.5399 37.4756 8.50457 37.5049 8.47548C37.5343 8.4464 37.5699 8.42434 37.6092 8.41097C37.6484 8.3976 37.6903 8.39328 37.7314 8.39834H39.4946C39.694 8.39834 39.7884 8.50234 39.7884 8.69994V17.5919C39.7884 17.9871 39.9668 18.1847 40.3341 18.1847C40.4898 18.1911 40.6456 18.1736 40.7959 18.1327C41.0058 18.1327 41.1212 18.1951 41.1317 18.3823L41.2891 19.6823C41.2967 19.7202 41.296 19.7593 41.287 19.7969C41.2781 19.8345 41.2611 19.8698 41.2372 19.9003C41.2134 19.9309 41.1832 19.956 41.1487 19.974C41.1142 19.992 41.0762 20.0025 41.0373 20.0047C40.6511 20.1311 40.2476 20.1978 39.8409 20.2023Z" fill="#374151"/>
<path d="M49.7584 19.0896C48.8725 19.815 47.7592 20.2118 46.61 20.2118C45.4608 20.2118 44.3475 19.815 43.4615 19.0896C42.6829 18.3106 42.246 17.2585 42.246 16.162C42.246 15.0655 42.6829 14.0134 43.4615 13.2344C44.3492 12.5128 45.4618 12.1184 46.61 12.1184C47.7581 12.1184 48.8707 12.5128 49.7584 13.2344C50.5191 14.0206 50.9438 15.0676 50.9438 16.1568C50.9438 17.246 50.5191 18.293 49.7584 19.0792V19.0896ZM45.1197 17.7168C45.5308 18.0859 46.0657 18.2902 46.6205 18.2902C47.1752 18.2902 47.7101 18.0859 48.1212 17.7168C48.4933 17.2928 48.6982 16.7499 48.6982 16.188C48.6982 15.6261 48.4933 15.0832 48.1212 14.6592C47.7101 14.2901 47.1752 14.0857 46.6205 14.0857C46.0657 14.0857 45.5308 14.2901 45.1197 14.6592C44.7476 15.0832 44.5427 15.6261 44.5427 16.188C44.5427 16.7499 44.7476 17.2928 45.1197 17.7168Z" fill="#374151"/>
<path d="M60.6519 12.3815C60.8513 12.3815 60.9457 12.4855 60.9457 12.6831V20.1399C60.9641 20.6432 60.869 21.1442 60.6675 21.6066C60.466 22.0689 60.1631 22.4809 59.7808 22.8127C58.9322 23.5298 57.841 23.9014 56.7269 23.8527C55.7206 23.8878 54.7277 23.6155 53.8828 23.0727C53.522 22.8379 53.2138 22.5321 52.9773 22.1743C52.7408 21.8165 52.581 21.4143 52.508 20.9927C52.508 20.7847 52.508 20.6911 52.7913 20.6911H54.5545C54.6293 20.6937 54.7018 20.7176 54.7633 20.76C54.8247 20.8025 54.8725 20.8616 54.9008 20.9303C55.0151 21.2462 55.2431 21.5091 55.541 21.6687C55.904 21.8543 56.308 21.9473 56.7164 21.9391C56.9628 21.9525 57.2094 21.9171 57.4419 21.835C57.6743 21.7528 57.8879 21.6256 58.0702 21.4607C58.2367 21.2883 58.3662 21.0842 58.451 20.8607C58.5358 20.6373 58.574 20.3992 58.5634 20.1607V19.5055C57.9322 19.9657 57.1639 20.2036 56.3805 20.1815C55.8323 20.2013 55.2857 20.1111 54.7735 19.9163C54.2613 19.7215 53.7942 19.4261 53.4 19.0479C52.6434 18.2722 52.2205 17.2356 52.2205 16.1567C52.2205 15.0779 52.6434 14.0412 53.4 13.2655C53.7961 12.8907 54.2638 12.5982 54.7757 12.4053C55.2876 12.2124 55.8332 12.123 56.3805 12.1423C57.1865 12.1213 57.9755 12.3745 58.6159 12.8599V12.6935C58.6111 12.6537 58.6153 12.6133 58.6282 12.5752C58.6411 12.5372 58.6624 12.5024 58.6905 12.4736C58.7187 12.4447 58.7529 12.4224 58.7909 12.4083C58.8288 12.3941 58.8694 12.3886 58.9098 12.3919L60.6519 12.3815ZM56.5799 18.3303C56.8503 18.3386 57.1192 18.288 57.3677 18.1819C57.6161 18.0759 57.838 17.9171 58.0177 17.7167C58.3666 17.2702 58.5559 16.7215 58.5559 16.1567C58.5559 15.592 58.3666 15.0433 58.0177 14.5967C57.8386 14.3991 57.6181 14.2426 57.3715 14.1384C57.1249 14.0342 56.8583 13.9848 56.5904 13.9935C56.3169 13.985 56.0448 14.0355 55.793 14.1414C55.5411 14.2474 55.3155 14.4063 55.1317 14.6071C54.7451 15.0343 54.5418 15.5939 54.5649 16.1671C54.546 16.7348 54.7448 17.2885 55.1212 17.7167C55.3054 17.9171 55.5311 18.0756 55.7829 18.1815C56.0347 18.2874 56.3065 18.3382 56.5799 18.3303Z" fill="#374151"/>
<path d="M70.0026 19.0895C69.115 19.8112 68.0024 20.2056 66.8542 20.2056C65.7061 20.2056 64.5935 19.8112 63.7058 19.0895C62.9444 18.3016 62.5194 17.2529 62.5194 16.1619C62.5194 15.071 62.9444 14.0222 63.7058 13.2343C64.5943 12.5146 65.7066 12.1214 66.8542 12.1214C68.0018 12.1214 69.1141 12.5146 70.0026 13.2343C70.7634 14.0205 71.1881 15.0676 71.1881 16.1567C71.1881 17.2459 70.7634 18.293 70.0026 19.0791V19.0895ZM65.3535 17.7167C65.5547 17.9064 65.7918 18.0546 66.0512 18.1528C66.3107 18.251 66.5872 18.2972 66.8647 18.2887C67.1405 18.2958 67.415 18.2489 67.6725 18.1508C67.9301 18.0527 68.1655 17.9052 68.3655 17.7167C68.7315 17.2899 68.9324 16.7481 68.9324 16.1879C68.9324 15.6278 68.7315 15.086 68.3655 14.6591C68.1655 14.4707 67.9301 14.3232 67.6725 14.2251C67.415 14.1269 67.1405 14.0801 66.8647 14.0871C66.5872 14.0787 66.3107 14.1249 66.0512 14.2231C65.7918 14.3213 65.5547 14.4695 65.3535 14.6591C64.9875 15.086 64.7865 15.6278 64.7865 16.1879C64.7865 16.7481 64.9875 17.2899 65.3535 17.7167Z" fill="#374151"/>
<path d="M74.9772 10.6136C74.6998 10.8542 74.3436 10.9868 73.9749 10.9868C73.6063 10.9868 73.2501 10.8542 72.9727 10.6136C72.8469 10.4959 72.7467 10.3541 72.6782 10.1967C72.6097 10.0393 72.5744 9.86977 72.5744 9.69838C72.5744 9.52699 72.6097 9.35741 72.6782 9.20004C72.7467 9.04266 72.8469 8.90081 72.9727 8.78318C73.253 8.54857 73.608 8.41986 73.9749 8.41986C74.3418 8.41986 74.6969 8.54857 74.9772 8.78318C75.103 8.90081 75.2032 9.04266 75.2717 9.20004C75.3401 9.35741 75.3755 9.52699 75.3755 9.69838C75.3755 9.86977 75.3401 10.0393 75.2717 10.1967C75.2032 10.3541 75.103 10.4959 74.9772 10.6136ZM75.1976 20.2024C74.5737 20.2327 73.9574 20.0571 73.445 19.7032C73.2347 19.544 73.0659 19.3373 72.9527 19.1003C72.8395 18.8633 72.7852 18.6028 72.7943 18.3408V12.6832C72.7892 12.6424 72.7935 12.6009 72.807 12.562C72.8205 12.5231 72.8428 12.4878 72.8721 12.4587C72.9015 12.4296 72.9371 12.4076 72.9764 12.3942C73.0156 12.3808 73.0574 12.3765 73.0986 12.3816H74.8617C75.0611 12.3816 75.1556 12.4856 75.1556 12.6832V17.592C75.1556 17.9872 75.334 18.1848 75.6908 18.1848C75.85 18.1904 76.0091 18.1729 76.1631 18.1328C76.373 18.1328 76.4884 18.1952 76.4989 18.3824L76.6563 19.6824C76.6639 19.7203 76.6632 19.7593 76.6542 19.797C76.6453 19.8346 76.6283 19.8698 76.6044 19.9004C76.5806 19.9309 76.5504 19.956 76.5159 19.9741C76.4814 19.9921 76.4434 20.0025 76.4045 20.0048C76.0149 20.1319 75.6077 20.1986 75.1976 20.2024Z" fill="#374151"/>
<path d="M83.1422 12.132C83.6929 12.1104 84.2423 12.1987 84.7579 12.3917C85.2736 12.5846 85.7448 12.8783 86.1436 13.2552C86.8858 14.0445 87.2984 15.0832 87.2984 16.162C87.2984 17.2408 86.8858 18.2795 86.1436 19.0688C85.7467 19.4491 85.276 19.7456 84.7601 19.9404C84.2442 20.1353 83.6938 20.2244 83.1422 20.2024C82.3563 20.2197 81.5861 19.9824 80.9488 19.5264V23.2808C80.9488 23.4784 80.8438 23.572 80.6444 23.572H78.8813C78.8411 23.5795 78.7996 23.5771 78.7605 23.5651C78.7214 23.5531 78.6859 23.5318 78.6569 23.5031C78.628 23.4745 78.6066 23.4392 78.5944 23.4005C78.5823 23.3617 78.5799 23.3207 78.5875 23.2808V14.7528C78.5998 14.6694 78.5923 14.5843 78.5656 14.5042C78.5388 14.4242 78.4936 14.3515 78.4334 14.2919C78.3732 14.2323 78.2999 14.1874 78.2191 14.1609C78.1383 14.1344 78.0524 14.127 77.9683 14.1392H77.6219C77.3911 14.1392 77.2756 14.056 77.2756 13.8896V12.6624C77.2702 12.5865 77.2912 12.511 77.3351 12.4485C77.379 12.3861 77.4432 12.3404 77.517 12.3192C77.88 12.1884 78.2642 12.125 78.6504 12.132C79.0356 12.0982 79.4221 12.1792 79.7605 12.3644C80.0989 12.5497 80.3738 12.8309 80.55 13.172C80.888 12.8331 81.2922 12.5661 81.7379 12.3873C82.1836 12.2085 82.6614 12.1216 83.1422 12.132ZM81.505 17.7168C81.6921 17.9106 81.9169 18.0648 82.1658 18.1702C82.4147 18.2756 82.6826 18.3299 82.9533 18.3299C83.2239 18.3299 83.4918 18.2756 83.7407 18.1702C83.9896 18.0648 84.2144 17.9106 84.4015 17.7168C84.7957 17.2811 85.0028 16.7103 84.9787 16.1256C85.0062 15.5404 84.7987 14.9683 84.4015 14.5344C84.2144 14.3406 83.9896 14.1864 83.7407 14.081C83.4918 13.9756 83.2239 13.9213 82.9533 13.9213C82.6826 13.9213 82.4147 13.9756 82.1658 14.081C81.9169 14.1864 81.6921 14.3406 81.505 14.5344C81.1231 14.976 80.9244 15.5446 80.9488 16.1256C80.9275 16.7062 81.1258 17.2737 81.505 17.7168Z" fill="#374151"/>
<path d="M92.2515 20.2023C91.3093 20.2407 90.3752 20.0174 89.5543 19.5575C89.225 19.361 88.9445 19.0934 88.7338 18.7747C88.523 18.4561 88.3874 18.0944 88.3369 17.7167C88.3369 17.5087 88.4104 17.4047 88.6413 17.4047H90.184C90.2574 17.4076 90.3286 17.4304 90.3897 17.4708C90.4508 17.5112 90.4995 17.5675 90.5303 17.6335C90.7507 18.1951 91.3279 18.4759 92.2515 18.4759C92.5736 18.4905 92.8944 18.4262 93.1855 18.2887C93.286 18.2438 93.3722 18.1726 93.4351 18.0829C93.4979 17.9931 93.535 17.8881 93.5423 17.7791C93.5423 17.5087 93.3744 17.3215 93.0386 17.1967C92.6402 17.0653 92.2284 16.9781 91.8107 16.9367C91.3158 16.8812 90.8251 16.7944 90.3414 16.6767C89.8711 16.5712 89.4434 16.3285 89.1135 15.9799C88.9193 15.743 88.7763 15.469 88.6935 15.1749C88.6106 14.8809 88.5897 14.5731 88.6321 14.2707C88.6744 13.9683 88.779 13.6778 88.9395 13.4172C89.1 13.1566 89.3128 12.9315 89.5648 12.7559C90.3213 12.2784 91.2088 12.0458 92.1046 12.0903C92.9718 12.0613 93.8299 12.2739 94.5813 12.7039C94.8841 12.8739 95.1449 13.1087 95.3446 13.3911C95.5443 13.6736 95.6779 13.9966 95.7357 14.3367C95.7357 14.5447 95.6413 14.6487 95.4524 14.6487H93.8991C93.8337 14.6526 93.7687 14.6368 93.7125 14.6034C93.6563 14.57 93.6117 14.5205 93.5843 14.4615C93.4805 14.2152 93.2851 14.0179 93.0386 13.9103C92.7604 13.7661 92.4498 13.6945 92.136 13.7023C91.8284 13.6857 91.5215 13.7466 91.244 13.8791C91.1462 13.9165 91.0619 13.9821 91.0021 14.0673C90.9422 14.1526 90.9095 14.2537 90.9081 14.3575C90.9149 14.4998 90.9674 14.6361 91.0581 14.7465C91.1487 14.857 91.2727 14.9357 91.4119 14.9711C91.8149 15.1217 92.2339 15.2263 92.6608 15.2831C93.1516 15.3471 93.6386 15.4374 94.1195 15.5535C94.5899 15.659 95.0175 15.9017 95.3474 16.2503C95.5239 16.4424 95.6602 16.6672 95.7484 16.9117C95.8367 17.1563 95.8752 17.4157 95.8617 17.6751C95.8707 18.0346 95.7856 18.3903 95.6145 18.7075C95.4434 19.0247 95.1923 19.2924 94.8857 19.4847C94.1015 19.9836 93.1827 20.2339 92.2515 20.2023Z" fill="#374151"/>
<path d="M106.955 19.6823C106.961 19.7193 106.959 19.757 106.95 19.7933C106.941 19.8296 106.925 19.8638 106.902 19.8939C106.88 19.9239 106.852 19.9492 106.819 19.9682C106.787 19.9872 106.751 19.9997 106.713 20.0047C106.33 20.1287 105.93 20.1953 105.527 20.2023C105.128 20.2433 104.726 20.1815 104.358 20.023C103.99 19.8645 103.67 19.6146 103.428 19.2975C102.687 19.9291 101.729 20.2532 100.752 20.2023C100.299 20.223 99.8463 20.1495 99.4234 19.9865C99.0004 19.8236 98.6166 19.5747 98.2965 19.2559C97.9786 18.922 97.7321 18.5278 97.5716 18.0971C97.4111 17.6665 97.34 17.2081 97.3625 16.7495V12.6831C97.3625 12.4855 97.4569 12.3815 97.6563 12.3815H99.4194C99.6188 12.3815 99.7133 12.4855 99.7133 12.6831V16.4375C99.6941 16.9053 99.8555 17.3627 100.165 17.7167C100.319 17.8789 100.506 18.0065 100.715 18.0908C100.923 18.1751 101.147 18.2142 101.371 18.2055C101.601 18.2155 101.831 18.1802 102.047 18.1017C102.264 18.0231 102.462 17.9029 102.631 17.7479C102.791 17.5846 102.915 17.3905 102.996 17.1777C103.078 16.9648 103.114 16.7377 103.103 16.5103V12.6831C103.103 12.4855 103.198 12.3815 103.397 12.3815H105.181C105.38 12.3815 105.475 12.4855 105.475 12.6831V17.5815C105.475 17.9871 105.653 18.1847 106 18.1847C106.162 18.191 106.325 18.1735 106.482 18.1327C106.522 18.1217 106.564 18.1197 106.604 18.127C106.645 18.1342 106.683 18.1504 106.717 18.1744C106.75 18.1984 106.777 18.2296 106.797 18.2656C106.816 18.3016 106.827 18.3415 106.829 18.3823L106.955 19.6823Z" fill="#374151"/>
<path d="M123.631 19.6824C123.64 19.7196 123.641 19.7585 123.633 19.7961C123.626 19.8337 123.61 19.8692 123.587 19.9C123.564 19.9309 123.534 19.9562 123.5 19.9743C123.466 19.9925 123.428 20.0028 123.389 20.0048C122.999 20.1305 122.592 20.1971 122.182 20.2024C121.558 20.2343 120.941 20.0586 120.43 19.7032C120.209 19.5509 120.029 19.347 119.906 19.1093C119.783 18.8716 119.722 18.6077 119.727 18.3408V15.8968C119.749 15.4304 119.591 14.9732 119.286 14.6176C119.139 14.455 118.957 14.3269 118.754 14.2424C118.55 14.1578 118.331 14.119 118.11 14.1288C117.912 14.1214 117.714 14.1587 117.533 14.2379C117.351 14.3172 117.19 14.4364 117.061 14.5864C116.784 14.9349 116.642 15.3704 116.662 15.8136V19.6512C116.662 19.8488 116.568 19.9528 116.368 19.9528H114.595C114.554 19.9578 114.512 19.9535 114.472 19.9402C114.433 19.9268 114.398 19.9047 114.368 19.8756C114.339 19.8466 114.317 19.8112 114.303 19.7723C114.29 19.7334 114.285 19.692 114.29 19.6512V15.8968C114.313 15.4355 114.168 14.9815 113.881 14.6176C113.753 14.4647 113.593 14.3417 113.411 14.2572C113.23 14.1727 113.032 14.1289 112.832 14.1288C112.618 14.1202 112.404 14.1566 112.205 14.2354C112.006 14.3143 111.826 14.4339 111.677 14.5864C111.377 14.9238 111.222 15.3644 111.247 15.8136V19.6512C111.252 19.692 111.248 19.7334 111.234 19.7723C111.221 19.8112 111.198 19.8466 111.169 19.8756C111.14 19.9047 111.104 19.9268 111.065 19.9402C111.026 19.9535 110.984 19.9578 110.943 19.9528H109.232C109.033 19.9528 108.938 19.8488 108.938 19.6512V14.7528C108.95 14.6694 108.943 14.5843 108.916 14.5042C108.889 14.4242 108.844 14.3515 108.784 14.2918C108.724 14.2322 108.65 14.1874 108.57 14.1609C108.489 14.1344 108.403 14.1269 108.319 14.1392H107.973C107.742 14.1392 107.626 14.056 107.626 13.8896V12.6624C107.621 12.5864 107.642 12.511 107.686 12.4485C107.73 12.386 107.794 12.3404 107.868 12.3192C108.231 12.1884 108.615 12.125 109.001 12.132C109.372 12.1007 109.744 12.1739 110.074 12.3432C110.405 12.5125 110.68 12.771 110.869 13.0888C111.223 12.7562 111.643 12.4996 112.101 12.335C112.56 12.1704 113.048 12.1013 113.535 12.132C114.008 12.1091 114.479 12.197 114.911 12.3885C115.344 12.5801 115.724 12.8699 116.022 13.2344C116.369 12.8603 116.796 12.5674 117.272 12.3767C117.747 12.1861 118.26 12.1025 118.772 12.132C119.23 12.1107 119.687 12.1839 120.115 12.3468C120.543 12.5097 120.933 12.7588 121.259 13.0784C121.578 13.4117 121.825 13.8057 121.986 14.2366C122.146 14.6674 122.217 15.1261 122.193 15.5848V17.592C122.193 17.9872 122.371 18.1848 122.707 18.1848C122.87 18.1923 123.033 18.1748 123.19 18.1328C123.407 18.1328 123.522 18.216 123.536 18.3824L123.631 19.6824Z" fill="#374151"/>
<path d="M0.569687 11.0296C1.34395 7.94566 3.13714 5.20707 5.66372 3.2499C8.1903 1.29273 11.305 0.229492 14.5119 0.229492C17.7188 0.229492 20.8335 1.29273 23.3601 3.2499C25.8867 5.20707 27.6799 7.94566 28.4541 11.0296H27.1948C25.0703 10.9986 22.9894 11.6278 21.2443 12.8288C21.1436 12.9011 21.0384 12.9671 20.9294 13.0264H20.7825C20.6735 12.9671 20.5684 12.9011 20.4677 12.8288C18.7071 11.6556 16.6336 11.029 14.5119 11.029C12.3903 11.029 10.3168 11.6556 8.55617 12.8288C8.45545 12.9011 8.3503 12.9671 8.24132 13.0264H8.0944C7.98542 12.9671 7.88027 12.9011 7.77956 12.8288C6.03443 11.6278 3.95352 10.9986 1.82905 11.0296H0.569687ZM24.9279 17.5504C25.5744 17.0515 26.3757 16.7905 27.1948 16.812H28.8844V13.4736H27.1948C25.752 13.4563 24.3422 13.9013 23.1753 14.7424C22.5187 15.2221 21.7243 15.481 20.9084 15.481C20.0926 15.481 19.2982 15.2221 18.6416 14.7424C17.4451 13.917 16.0222 13.4746 14.5644 13.4746C13.1065 13.4746 11.6837 13.917 10.4872 14.7424C9.83054 15.2221 9.03615 15.481 8.22034 15.481C7.40452 15.481 6.61013 15.2221 5.95348 14.7424C4.77219 13.8906 3.34218 13.445 1.88153 13.4736H0.139404V16.812H1.82905C2.64818 16.7905 3.44943 17.0515 4.09591 17.5504C5.29022 18.3763 6.7115 18.8192 8.16786 18.8192C9.62422 18.8192 11.0455 18.3763 12.2398 17.5504C12.8871 17.053 13.6878 16.7922 14.5067 16.812C15.326 16.7887 16.1279 17.0499 16.7735 17.5504C17.97 18.3758 19.3929 18.8182 20.8507 18.8182C22.3086 18.8182 23.7314 18.3758 24.9279 17.5504ZM24.9279 23.52C25.5744 23.0211 26.3757 22.7601 27.1948 22.7816H28.8844V19.4432H27.1948C25.752 19.4259 24.3422 19.8709 23.1753 20.712C22.5187 21.1918 21.7243 21.4506 20.9084 21.4506C20.0926 21.4506 19.2982 21.1918 18.6416 20.712C17.4451 19.8866 16.0222 19.4442 14.5644 19.4442C13.1065 19.4442 11.6837 19.8866 10.4872 20.712C9.83054 21.1918 9.03615 21.4506 8.22034 21.4506C7.40452 21.4506 6.61013 21.1918 5.95348 20.712C4.77219 19.8602 3.34218 19.4146 1.88153 19.4432H0.139404V22.7816H1.82905C2.64818 22.7601 3.44943 23.0211 4.09591 23.52C5.29022 24.3459 6.7115 24.7888 8.16786 24.7888C9.62422 24.7888 11.0455 24.3459 12.2398 23.52C12.8871 23.0226 13.6878 22.7618 14.5067 22.7816C15.326 22.7583 16.1279 23.0195 16.7735 23.52C17.97 24.3454 19.3929 24.7878 20.8507 24.7878C22.3086 24.7878 23.7314 24.3454 24.9279 23.52Z" fill="#374151"/>
</g>
</svg>
